<svg width="42" height="42" viewBox="0 0 42 42" fill="none" xmlns="http://www.w3.org/2000/svg">
<rect x="6.2632" y="0.368421" width="35.3684" height="35.2781" stroke="#5F462C" stroke-width="0.736842"/>
<rect y="5.98499" width="36.1053" height="36.015" fill="#5F462C"/>
<mask id="mask0_65_913" style="mask-type:alpha" maskUnits="userSpaceOnUse" x="6" y="12" width="24" height="24">
<rect x="6" y="12" width="24" height="24" fill="#D9D9D9"/>
</mask>
<g mask="url(#mask0_65_913)">
<path d="M9 30V25C9 24.7038 9.08525 24.3884 9.25575 24.0538C9.42625 23.7193 9.67433 23.468 10 23.3V21C10 20.4358 10.1923 19.9615 10.577 19.577C10.9615 19.1923 11.4358 19 12 19H16.5C16.8448 19 17.1391 19.0708 17.3828 19.2125C17.6263 19.3542 17.832 19.55 18 19.8C18.168 19.55 18.3738 19.3542 18.6173 19.2125C18.8609 19.0708 19.1552 19 19.5 19H24C24.5642 19 25.0385 19.1923 25.423 19.577C25.8077 19.9615 26 20.4358 26 21V23.3C26.3257 23.468 26.5738 23.7193 26.7443 24.0538C26.9148 24.3884 27 24.7038 27 25V30H26V28H10V30H9ZM18.5 23H25V21C25 20.7167 24.9042 20.4792 24.7125 20.2875C24.5208 20.0958 24.2833 20 24 20H19.5C19.2167 20 18.9792 20.0958 18.7875 20.2875C18.5958 20.4792 18.5 20.7167 18.5 21V23ZM11 23H17.5V21C17.5 20.7167 17.4042 20.4792 17.2125 20.2875C17.0208 20.0958 16.7833 20 16.5 20H12C11.7167 20 11.4792 20.0958 11.2875 20.2875C11.0958 20.4792 11 20.7167 11 21V23ZM10 27H26V25C26 24.7167 25.9042 24.4792 25.7125 24.2875C25.5208 24.0958 25.2833 24 25 24H11C10.7167 24 10.4792 24.0958 10.2875 24.2875C10.0958 24.4792 10 24.7167 10 25V27Z" fill="white"/>
</g>
</svg>
