<svg width="28" height="28" viewBox="0 0 28 28" fill="none" xmlns="http://www.w3.org/2000/svg">
<path d="M26.1288 28C23.1786 28 20.1543 27.2614 17.0559 25.7841C13.9576 24.3065 11.079 22.2327 8.42013 19.5628C5.76158 16.8932 3.69352 14.0147 2.21594 10.9274C0.738646 7.84015 0 4.8214 0 1.87119C0 1.33656 0.175 0.89104 0.525 0.534624C0.875 0.178207 1.3125 0 1.8375 0H6.16525C6.64096 0 7.056 0.149772 7.41038 0.449313C7.76504 0.748855 8.00523 1.13312 8.13094 1.60212L8.99894 5.775C9.07973 6.26412 9.06515 6.69156 8.95519 7.05731C8.84523 7.42306 8.65112 7.7226 8.37288 7.95594L4.53337 11.5364C5.25117 12.8399 6.04479 14.0509 6.91425 15.1694C7.78371 16.288 8.71092 17.3475 9.69588 18.3479C10.712 19.3643 11.8058 20.3095 12.9771 21.1833C14.1482 22.0571 15.4337 22.8823 16.8337 23.6587L20.5761 19.8489C20.861 19.5415 21.1813 19.3391 21.5368 19.2417C21.8924 19.144 22.2855 19.1243 22.7163 19.1826L26.3979 19.9364C26.8736 20.0531 27.2596 20.2927 27.5559 20.6553C27.852 21.0175 28 21.4331 28 21.9021V26.1625C28 26.6875 27.8218 27.125 27.4654 27.475C27.109 27.825 26.6634 28 26.1288 28ZM3.71219 9.89406L7.07088 6.80487C7.18288 6.71504 7.25579 6.59167 7.28963 6.43475C7.32317 6.27754 7.31748 6.13171 7.27256 5.99725L6.49512 2.28856C6.45021 2.1089 6.37175 1.97429 6.25975 1.88475C6.14746 1.79492 6.00162 1.75 5.82225 1.75H2.23125C2.0965 1.75 1.98435 1.79492 1.89481 1.88475C1.80498 1.97429 1.76006 2.08644 1.76006 2.22119C1.7936 3.41702 1.981 4.6655 2.32225 5.96663C2.66321 7.26804 3.12652 8.57719 3.71219 9.89406ZM18.4997 24.4799C19.6818 25.0655 20.9421 25.4985 22.2806 25.7788C23.6187 26.0594 24.7848 26.2097 25.7788 26.2299C25.9136 26.2299 26.0257 26.185 26.1152 26.0951C26.2051 26.0053 26.25 25.8931 26.25 25.7587V22.2451C26.25 22.0658 26.2051 21.9199 26.1152 21.8076C26.0257 21.6956 25.8911 21.6172 25.7114 21.5723L22.4739 20.909C22.3395 20.8641 22.2218 20.8585 22.1209 20.8924C22.0197 20.9259 21.9131 20.9988 21.8011 21.1111L18.4997 24.4799Z" fill="#1C1B1F"/>
</svg>
