<svg width="16" height="19" viewBox="0 0 16 19" fill="none" xmlns="http://www.w3.org/2000/svg">
<path d="M10.8845 15.9999C10.3 15.9999 9.80133 15.7935 9.3885 15.3807C8.97567 14.9678 8.76925 14.4691 8.76925 13.8844C8.76925 13.2999 8.97567 12.8012 9.3885 12.3884C9.80133 11.9756 10.3 11.7692 10.8845 11.7692C11.4692 11.7692 11.9679 11.9756 12.3807 12.3884C12.7936 12.8012 13 13.2999 13 13.8844C13 14.4691 12.7936 14.9678 12.3807 15.3807C11.9679 15.7935 11.4692 15.9999 10.8845 15.9999ZM1.6155 18.9999C1.15517 18.9999 0.770833 18.8457 0.4625 18.5374C0.154167 18.2291 0 17.8447 0 17.3844V4.61541C0 4.15508 0.154167 3.77075 0.4625 3.46241C0.770833 3.15408 1.15517 2.99991 1.6155 2.99991H3.3845V0.769165H4.4615V2.99991H11.6155V0.769165H12.6155V2.99991H14.3845C14.8448 2.99991 15.2292 3.15408 15.5375 3.46241C15.8458 3.77075 16 4.15508 16 4.61541V17.3844C16 17.8447 15.8458 18.2291 15.5375 18.5374C15.2292 18.8457 14.8448 18.9999 14.3845 18.9999H1.6155ZM1.6155 17.9999H14.3845C14.5385 17.9999 14.6796 17.9358 14.8077 17.8077C14.9359 17.6795 15 17.5384 15 17.3844V8.61541H1V17.3844C1 17.5384 1.06408 17.6795 1.19225 17.8077C1.32042 17.9358 1.4615 17.9999 1.6155 17.9999ZM1 7.61516H15V4.61541C15 4.46141 14.9359 4.32033 14.8077 4.19216C14.6796 4.064 14.5385 3.99991 14.3845 3.99991H1.6155C1.4615 3.99991 1.32042 4.064 1.19225 4.19216C1.06408 4.32033 1 4.46141 1 4.61541V7.61516Z" fill="#1C1B1F"/>
</svg>
