<svg width="42" height="42" viewBox="0 0 42 42" fill="none" xmlns="http://www.w3.org/2000/svg">
<rect x="6.2632" y="0.368421" width="35.3684" height="35.2781" stroke="#5F462C" stroke-width="0.736842"/>
<rect y="5.98499" width="36.1053" height="36.015" fill="#5F462C"/>
<mask id="mask0_65_797" style="mask-type:alpha" maskUnits="userSpaceOnUse" x="6" y="12" width="24" height="24">
<rect x="6" y="12" width="24" height="24" fill="#D9D9D9"/>
</mask>
<g mask="url(#mask0_65_797)">
<path d="M11.723 25.6155L17.6923 29.0577C17.7949 29.1217 17.8975 29.1538 18 29.1538C18.1025 29.1538 18.2051 29.1217 18.3077 29.0577L24.2578 25.6155L18.5 22.2865V25.5H17.5V22.2865L11.723 25.6155ZM17.5 21.1405V19.9462C16.9205 19.8321 16.4423 19.5462 16.0655 19.0887C15.6885 18.6312 15.5 18.1017 15.5 17.5C15.5 16.8025 15.7423 16.2115 16.227 15.727C16.7115 15.2423 17.3025 15 18 15C18.6975 15 19.2885 15.2423 19.773 15.727C20.2577 16.2115 20.5 16.8025 20.5 17.5C20.5 18.1017 20.3115 18.6312 19.9345 19.0887C19.5577 19.5462 19.0795 19.8321 18.5 19.9462V21.1405L25.1923 24.9923C25.4481 25.1394 25.6467 25.3367 25.788 25.584C25.9293 25.8313 26 26.1021 26 26.3963V27.6038C26 27.8979 25.9293 28.1687 25.788 28.416C25.6467 28.6633 25.4481 28.8606 25.1923 29.0078L18.8077 32.6865C18.5509 32.8313 18.2806 32.9038 17.9967 32.9038C17.7131 32.9038 17.4449 32.8313 17.1923 32.6865L10.8077 29.0078C10.5519 28.8606 10.3533 28.6633 10.212 28.416C10.0707 28.1687 10 27.8979 10 27.6038V26.3963C10 26.1021 10.0707 25.8313 10.212 25.584C10.3533 25.3367 10.5519 25.1394 10.8077 24.9923L17.5 21.1405ZM17.1923 29.9173L11 26.352V27.6038C11 27.7064 11.0257 27.8058 11.077 27.902C11.1282 27.9982 11.2051 28.0782 11.3077 28.1423L17.6923 31.827C17.7949 31.891 17.8975 31.923 18 31.923C18.1025 31.923 18.2051 31.891 18.3077 31.827L24.6923 28.1423C24.7949 28.0782 24.8718 27.9982 24.923 27.902C24.9743 27.8058 25 27.7064 25 27.6038V26.352L18.8077 29.9173C18.5509 30.0621 18.2806 30.1345 17.9967 30.1345C17.7131 30.1345 17.4449 30.0621 17.1923 29.9173ZM18 19C18.4167 19 18.7708 18.8542 19.0625 18.5625C19.3542 18.2708 19.5 17.9167 19.5 17.5C19.5 17.0833 19.3542 16.7292 19.0625 16.4375C18.7708 16.1458 18.4167 16 18 16C17.5833 16 17.2292 16.1458 16.9375 16.4375C16.6458 16.7292 16.5 17.0833 16.5 17.5C16.5 17.9167 16.6458 18.2708 16.9375 18.5625C17.2292 18.8542 17.5833 19 18 19Z" fill="white"/>
</g>
</svg>
