<svg width="42" height="42" viewBox="0 0 42 42" fill="none" xmlns="http://www.w3.org/2000/svg">
<rect x="6.26332" y="0.368421" width="35.3684" height="35.2781" stroke="#5F462C" stroke-width="0.736842"/>
<rect y="5.98499" width="36.1053" height="36.015" fill="#5F462C"/>
<mask id="mask0_65_791" style="mask-type:alpha" maskUnits="userSpaceOnUse" x="6" y="12" width="24" height="24">
<rect x="6" y="12" width="24" height="24" fill="#D9D9D9"/>
</mask>
<g mask="url(#mask0_65_791)">
<path d="M10.3845 31V22.423L15.3845 17.423L20.3845 22.423V31H10.3845ZM11.3845 30H14.6153V27.6922H16.1538V30H19.3845V22.825L15.3845 18.825L11.3845 22.825V30ZM14.6153 24.7692V23.2307H16.1538V24.7692H14.6153ZM22 31.0192V21.752L17.6713 17.423H19.0923L23 21.3307V31.0192H22ZM24.6155 31.0192V20.6595L21.3788 17.423H22.8193L25.6155 20.2385V31.0192H24.6155Z" fill="white"/>
</g>
</svg>
