<svg width="181" height="64" viewBox="0 0 181 64" fill="none" xmlns="http://www.w3.org/2000/svg">
<path d="M12.6252 38.4361L24.0151 27.0461L34.9492 38.4361L24.0151 49.3703L12.6252 38.4361Z" stroke="#F38120" stroke-width="2.30116"/>
<path d="M1.88666 27.4951C18.4453 17.1064 28.0434 17.3746 45.7126 27.4951" stroke="#F38120" stroke-width="2.30116"/>
<path d="M0 14.2896H47.5992" stroke="#F38120" stroke-width="2.30116"/>
<path d="M68.8251 33.6913V33.2796C69.3491 33.13 69.6984 32.8055 69.873 32.3066C70.0726 31.7826 70.1724 30.8471 70.1724 29.4998V12.1352C70.1724 11.8109 70.0601 11.5489 69.8356 11.3493C69.6111 11.1248 69.3491 11.0125 69.0497 11.0125H67.927C66.7294 11.0125 65.7688 11.2495 65.0453 11.7236C64.3218 12.1727 63.6856 12.996 63.1368 14.1935L62.7625 14.1187L62.9496 10.4512H80.0523L80.2395 14.1187L79.9025 14.1935C79.3288 12.996 78.6676 12.1727 77.9192 11.7236C77.1955 11.2495 76.1977 11.0125 74.9252 11.0125H74.0644C73.7402 11.0125 73.4657 11.1248 73.2411 11.3493C73.0167 11.5489 72.9043 11.8109 72.9043 12.1352V29.4998C72.9043 30.8471 72.9916 31.7826 73.1663 32.3066C73.366 32.8055 73.7276 33.13 74.2516 33.2796V33.6913H68.8251ZM111.327 10.6383C111.476 10.6383 111.688 10.6258 111.963 10.6009C112.237 10.5759 112.474 10.551 112.674 10.526C112.873 10.4761 112.961 10.4512 112.936 10.4512V10.788C112.112 11.1123 111.364 12.1352 110.69 13.8567L102.869 33.8785H101.933L96.619 20.4807L91.4171 33.8785H90.4815L82.8845 14.7549C81.9864 12.5095 81.1006 11.2246 80.2274 10.9002V10.4512C81.0757 10.6508 81.9738 10.7506 82.9219 10.7506L85.579 10.4512V10.9002C85.1549 11.025 84.9303 11.3244 84.9054 11.7984C84.9054 12.2725 85.0675 12.9211 85.392 13.7445L92.0532 30.8097C93.7499 26.3937 95.172 22.7012 96.3196 19.7323L94.3361 14.7549C93.4379 12.5095 92.5523 11.2246 91.679 10.9002V10.4512C92.5273 10.6508 93.4254 10.7506 94.3735 10.7506L97.0307 10.4512V10.9002C96.6064 11.025 96.382 11.3244 96.357 11.7984C96.357 12.2725 96.5191 12.9211 96.8436 13.7445L103.505 30.8097C107.821 19.4578 109.979 13.7694 109.979 13.7445C110.304 12.8962 110.466 12.235 110.466 11.761C110.466 11.262 110.241 10.9501 109.792 10.8254V10.4512C110.516 10.551 111.027 10.6133 111.327 10.6383ZM119.191 10.9002C118.717 11.0499 118.38 11.3618 118.18 11.8358C117.981 12.3099 117.881 13.1207 117.881 14.2684C117.881 24.4228 117.881 29.4998 117.881 29.4998C117.881 30.8222 117.968 31.7452 118.143 32.2692C118.342 32.7932 118.692 33.13 119.191 33.2796V33.6913H113.839V33.2796C114.338 33.13 114.675 32.7932 114.85 32.2692C115.049 31.7452 115.149 30.8222 115.149 29.4998V14.1187C115.149 13.0459 115.049 12.2849 114.85 11.8358C114.65 11.3618 114.313 11.0499 113.839 10.9002V10.4512C114.687 10.6508 115.586 10.7506 116.534 10.7506L119.191 10.4512V10.9002ZM138.587 10.7506C139.111 10.7506 139.635 10.6508 140.159 10.4512H140.196V10.9002C139.697 11.0499 139.348 11.3618 139.148 11.8358C138.949 12.3099 138.849 13.1207 138.849 14.2684V33.6913H138.437L123.056 14.0064V29.4998C123.056 30.8222 123.143 31.7452 123.318 32.2692C123.518 32.7932 123.88 33.13 124.403 33.2796V33.6913H121.185V33.2796C121.684 33.13 122.021 32.7932 122.195 32.2692C122.395 31.7452 122.495 30.8222 122.495 29.4998V14.1187C122.495 13.0459 122.395 12.2849 122.195 11.8358C121.996 11.3618 121.659 11.0499 121.185 10.9002V10.4512C121.709 10.6508 122.245 10.7506 122.794 10.7506C123.044 10.7506 123.268 10.7256 123.468 10.6757C123.667 10.6258 123.817 10.5759 123.917 10.526L124.029 10.4512L138.288 28.9386V14.3432C138.288 12.3473 137.764 11.1996 136.716 10.9002V10.4512C137.414 10.6508 138.038 10.7506 138.587 10.7506ZM159.455 10.7506C159.979 10.7506 160.503 10.6508 161.027 10.4512H161.064V10.9002C160.565 11.0499 160.216 11.3618 160.017 11.8358C159.817 12.3099 159.717 13.1207 159.717 14.2684V33.6913H159.305L143.924 14.0064V29.4998C143.924 30.8222 144.012 31.7452 144.186 32.2692C144.386 32.7932 144.748 33.13 145.272 33.2796V33.6913H142.053V33.2796C142.552 33.13 142.889 32.7932 143.064 32.2692C143.263 31.7452 143.363 30.8222 143.363 29.4998V14.1187C143.363 13.0459 143.263 12.2849 143.064 11.8358C142.864 11.3618 142.527 11.0499 142.053 10.9002V10.4512C142.577 10.6508 143.113 10.7506 143.662 10.7506C143.912 10.7506 144.136 10.7256 144.336 10.6757C144.536 10.6258 144.685 10.5759 144.785 10.526L144.897 10.4512L159.156 28.9386V14.3432C159.156 12.3473 158.632 11.1996 157.584 10.9002V10.4512C158.283 10.6508 158.906 10.7506 159.455 10.7506ZM179.2 10.7131C179.799 10.7131 180.349 10.6258 180.846 10.4512V10.9002C180.349 11.0749 179.825 11.4242 179.275 11.9481C178.751 12.472 178.302 13.0584 177.928 13.707L172.615 23.1753V29.4998C172.615 30.8471 172.701 31.7826 172.877 32.3066C173.075 32.8055 173.424 33.13 173.924 33.2796V33.6913H168.535V33.2796C169.033 33.13 169.37 32.7932 169.546 32.2692C169.744 31.7452 169.833 30.8222 169.808 29.4998V23.2501L165.017 14.4929C163.72 12.4222 162.647 11.2246 161.799 10.9002V10.4512C162.797 10.6508 163.769 10.7506 164.718 10.7506C165.042 10.7506 165.416 10.7256 165.84 10.6757C166.289 10.6258 166.664 10.5759 166.963 10.526L167.375 10.4512V10.8628C166.576 11.1123 166.614 11.998 167.487 13.5199C170.78 19.4329 172.428 22.3893 172.428 22.3893C175.57 16.8007 177.267 13.7819 177.517 13.3328C177.691 13.0334 177.816 12.7215 177.891 12.3972C177.991 12.0729 178.016 11.761 177.966 11.4616C177.916 11.1622 177.766 10.9626 177.517 10.8628V10.4512C178.09 10.6258 178.652 10.7131 179.2 10.7131Z" fill="black"/>
<path d="M96.8459 49.5995C96.9393 49.6368 97.0605 49.6742 97.2098 49.7114C97.6765 49.8607 98.031 49.9821 98.2736 50.0754C98.5162 50.1687 98.8241 50.318 99.1973 50.5232C99.5892 50.7099 99.8785 50.9151 100.065 51.139C100.27 51.3444 100.448 51.6243 100.597 51.9789C100.765 52.3147 100.849 52.6974 100.849 53.1265C100.849 54.1716 100.466 55.0487 99.7012 55.7579C98.9361 56.467 97.8723 56.8215 96.51 56.8215C95.521 56.8215 94.5599 56.6163 93.6268 56.2057C92.9923 55.9258 92.5071 55.5059 92.1712 54.946C91.8539 54.3862 91.8539 53.7984 92.1712 53.1825C92.3578 52.7906 92.6564 52.5294 93.067 52.3987C93.4961 52.2494 93.9067 52.2775 94.2986 52.4827C94.7092 52.6693 94.9798 52.9772 95.1104 53.4065C95.2597 53.817 95.2316 54.2182 95.0264 54.6101C94.8958 54.8714 94.6811 55.086 94.3826 55.2539C94.1027 55.4219 93.8134 55.5153 93.5148 55.534C94.2986 56.1498 95.4649 56.4577 97.0139 56.4577C97.7603 56.4577 98.3763 56.2524 98.8615 55.8419C99.3465 55.4313 99.5892 54.8995 99.5892 54.2462C99.5892 53.9103 99.5145 53.6117 99.3653 53.3504C99.2347 53.0706 99.076 52.8467 98.8894 52.6787C98.7214 52.5107 98.4509 52.3427 98.0775 52.1748C97.7231 51.9883 97.4245 51.8482 97.1819 51.755C96.9393 51.6617 96.5753 51.5403 96.0902 51.391C95.4183 51.1671 94.8865 50.9804 94.4946 50.8311C94.1213 50.6819 93.7294 50.4766 93.319 50.2153C92.9271 49.9355 92.647 49.6089 92.4791 49.2355C92.3111 48.8623 92.2271 48.4145 92.2271 47.8919C92.2271 47.0148 92.5444 46.2777 93.1789 45.6805C93.8321 45.0834 94.7279 44.7287 95.8661 44.6169C96.9112 44.4676 97.8443 44.5516 98.6655 44.8688C99.9345 45.3726 100.513 46.1285 100.401 47.1362C100.345 47.5654 100.121 47.9106 99.7293 48.1719C99.3559 48.4145 98.9453 48.4891 98.4975 48.3958C98.0684 48.3212 97.7324 48.0973 97.4898 47.7241C97.2472 47.3507 97.1632 46.9495 97.2378 46.5204C97.3499 45.9605 97.6857 45.578 98.2455 45.3726C97.5925 45.0368 96.8833 44.8688 96.1181 44.8688C95.3156 44.8688 94.6719 45.0553 94.1867 45.4287C93.7015 45.7832 93.4589 46.2684 93.4589 46.8842C93.4589 47.5561 93.7387 48.0879 94.2986 48.4798C94.8772 48.853 95.7262 49.2263 96.8459 49.5995ZM113.81 53.6024C113.81 54.5729 113.875 55.2446 114.006 55.6179C114.137 55.9724 114.389 56.2057 114.762 56.3177V56.6256H112.746C112.224 56.6256 111.963 56.3084 111.963 55.6739V54.4702C110.432 56.0564 108.893 56.8495 107.344 56.8495C104.918 56.8495 103.705 55.4126 103.705 52.5388V48.116C103.705 47.332 103.63 46.8002 103.481 46.5204C103.332 46.2403 103.089 46.0724 102.753 46.0164V45.6526C103.238 45.6526 103.686 45.5593 104.097 45.3726C104.526 45.1861 104.824 44.9994 104.992 44.8127L105.244 44.5329H105.552V52.0908C105.552 53.4718 105.758 54.4795 106.168 55.114C106.579 55.7298 107.26 56.0377 108.212 56.0377C109.443 56.0377 110.694 55.3566 111.963 53.9943V48.116C111.963 47.332 111.888 46.8002 111.739 46.5204C111.608 46.2403 111.365 46.0724 111.011 46.0164V45.6526C111.496 45.6526 111.944 45.5593 112.355 45.3726C112.784 45.1861 113.082 44.9994 113.25 44.8127L113.53 44.5329H113.838L113.81 53.6024ZM119.288 41.4816C119.045 41.7242 118.737 41.8456 118.364 41.8456C117.991 41.8456 117.673 41.7242 117.412 41.4816C117.17 41.2204 117.048 40.9125 117.048 40.5579C117.048 40.166 117.17 39.8487 117.412 39.6061C117.673 39.3448 117.991 39.2142 118.364 39.2142C118.737 39.2142 119.045 39.3448 119.288 39.6061C119.549 39.8487 119.679 40.166 119.679 40.5579C119.679 40.9125 119.549 41.2204 119.288 41.4816ZM119.428 53.6024C119.428 54.5542 119.493 55.2167 119.624 55.5899C119.773 55.9631 120.025 56.2057 120.379 56.3177V56.6256H116.628V56.3177C117.002 56.2057 117.254 55.9724 117.384 55.6179C117.515 55.2446 117.58 54.5729 117.58 53.6024V48.1438C117.58 47.3601 117.505 46.8283 117.356 46.5482C117.207 46.2684 116.964 46.1004 116.628 46.0445V45.6805C117.114 45.6805 117.561 45.5873 117.972 45.4006C118.401 45.214 118.7 45.0274 118.868 44.8408L119.12 44.5329H119.428V53.6024ZM128.352 55.086C128.371 55.1234 128.418 55.2446 128.492 55.45C127.503 56.383 126.542 56.8495 125.609 56.8495C124.004 56.8495 123.202 55.7205 123.202 53.4625V45.0647H121.69V44.7287C122.866 44.7287 123.808 43.9449 124.517 42.3774C124.667 42.0042 124.741 41.8175 124.741 41.8175H125.077V44.7287H127.093V45.0647H125.077V53.4625C125.077 54.9554 125.637 55.7019 126.757 55.7019C127.298 55.7019 127.83 55.4966 128.352 55.086ZM140.56 53.2945L140.784 53.5184C139.141 55.7392 137.266 56.8495 135.157 56.8495C134.485 56.8495 133.823 56.7283 133.17 56.4857C132.517 56.2431 131.91 55.8884 131.35 55.4219C130.809 54.9554 130.371 54.3489 130.035 53.6024C129.699 52.8373 129.531 51.9789 129.531 51.0272C129.531 49.1424 130.147 47.5933 131.378 46.3804C132.61 45.1674 134.075 44.5609 135.773 44.5609C137.229 44.5609 138.386 44.9713 139.244 45.7925C140.103 46.595 140.55 47.5933 140.588 48.7877H131.294C131.238 49.1424 131.21 49.5062 131.21 49.8794C131.21 51.503 131.677 52.828 132.61 53.8544C133.543 54.8621 134.784 55.366 136.333 55.366C137.938 55.366 139.347 54.6755 140.56 53.2945ZM134.989 45.0087C134.019 44.99 133.216 45.2979 132.582 45.9324C131.966 46.5669 131.556 47.4068 131.35 48.4517H138.684C138.554 47.5746 138.153 46.7815 137.481 46.0724C136.827 45.3632 135.997 45.0087 134.989 45.0087ZM147.593 49.5995C147.687 49.6368 147.808 49.6742 147.957 49.7114C148.424 49.8607 148.778 49.9821 149.021 50.0754C149.264 50.1687 149.572 50.318 149.945 50.5232C150.337 50.7099 150.626 50.9151 150.812 51.139C151.018 51.3444 151.195 51.6243 151.344 51.9789C151.512 52.3147 151.596 52.6974 151.596 53.1265C151.596 54.1716 151.214 55.0487 150.449 55.7579C149.683 56.467 148.62 56.8215 147.257 56.8215C146.268 56.8215 145.307 56.6163 144.374 56.2057C143.74 55.9258 143.255 55.5059 142.919 54.946C142.601 54.3862 142.601 53.7984 142.919 53.1825C143.105 52.7906 143.404 52.5294 143.814 52.3987C144.244 52.2494 144.654 52.2775 145.046 52.4827C145.457 52.6693 145.727 52.9772 145.858 53.4065C146.007 53.817 145.979 54.2182 145.774 54.6101C145.643 54.8714 145.429 55.086 145.13 55.2539C144.85 55.4219 144.561 55.5153 144.262 55.534C145.046 56.1498 146.212 56.4577 147.761 56.4577C148.508 56.4577 149.124 56.2524 149.609 55.8419C150.094 55.4313 150.337 54.8995 150.337 54.2462C150.337 53.9103 150.262 53.6117 150.113 53.3504C149.982 53.0706 149.824 52.8467 149.637 52.6787C149.469 52.5107 149.198 52.3427 148.825 52.1748C148.471 51.9883 148.172 51.8482 147.929 51.755C147.687 51.6617 147.323 51.5403 146.838 51.391C146.166 51.1671 145.634 50.9804 145.242 50.8311C144.869 50.6819 144.477 50.4766 144.066 50.2153C143.674 49.9355 143.395 49.6089 143.227 49.2355C143.059 48.8623 142.975 48.4145 142.975 47.8919C142.975 47.0148 143.292 46.2777 143.926 45.6805C144.58 45.0834 145.475 44.7287 146.614 44.6169C147.659 44.4676 148.592 44.5516 149.413 44.8688C150.682 45.3726 151.26 46.1285 151.148 47.1362C151.093 47.5654 150.868 47.9106 150.477 48.1719C150.103 48.4145 149.693 48.4891 149.245 48.3958C148.816 48.3212 148.48 48.0973 148.237 47.7241C147.995 47.3507 147.911 46.9495 147.985 46.5204C148.097 45.9605 148.433 45.578 148.993 45.3726C148.34 45.0368 147.631 44.8688 146.866 44.8688C146.063 44.8688 145.419 45.0553 144.934 45.4287C144.449 45.7832 144.206 46.2684 144.206 46.8842C144.206 47.5561 144.486 48.0879 145.046 48.4798C145.625 48.853 146.474 49.2263 147.593 49.5995Z" fill="black"/>
</svg>
