<svg width="174" height="61" viewBox="0 0 174 61" fill="none" xmlns="http://www.w3.org/2000/svg">
<g clip-path="url(#clip0_67_1628)">
<path d="M12.4669 36.7585L23.3596 25.8657L33.8165 36.7585L23.3596 47.2154L12.4669 36.7585Z" stroke="black" stroke-width="1.9592"/>
<path d="M2.19678 26.295C18.0326 16.3598 27.2118 16.6163 44.1098 26.295" stroke="black" stroke-width="1.9592"/>
<path d="M0.3927 13.6658H45.9142" stroke="black" stroke-width="1.9592"/>
<path d="M66.2136 32.2208V31.8271C66.7147 31.684 67.0487 31.3737 67.2157 30.8966C67.4066 30.3955 67.5021 29.5008 67.5021 28.2123V11.6057C67.5021 11.2955 67.3946 11.045 67.18 10.8541C66.9652 10.6393 66.7147 10.532 66.4283 10.532H65.3546C64.2093 10.532 63.2907 10.7586 62.5988 11.212C61.9068 11.6415 61.2984 12.4288 60.7735 13.5741L60.4155 13.5026L60.5945 9.99512H76.9507L77.1297 13.5026L76.8074 13.5741C76.2588 12.4288 75.6264 11.6415 74.9107 11.212C74.2186 10.7586 73.2643 10.532 72.0474 10.532H71.2242C70.9141 10.532 70.6515 10.6393 70.4368 10.8541C70.2222 11.045 70.1147 11.2955 70.1147 11.6057V28.2123C70.1147 29.5008 70.1982 30.3955 70.3652 30.8966C70.5562 31.3737 70.9021 31.684 71.4032 31.8271V32.2208H66.2136ZM106.86 10.1741C107.003 10.1741 107.206 10.1621 107.468 10.1383C107.731 10.1144 107.957 10.0906 108.148 10.0667C108.339 10.019 108.423 9.99512 108.399 9.99512V10.3172C107.611 10.6274 106.896 11.6057 106.251 13.252L98.7713 32.3999H97.8764L92.7942 19.5868L87.8194 32.3999H86.9247L79.6593 14.111C78.8003 11.9636 77.9532 10.7348 77.1182 10.4246V9.99512C77.9294 10.186 78.7883 10.2814 79.695 10.2814L82.2361 9.99512V10.4246C81.8305 10.5439 81.6157 10.8302 81.5919 11.2836C81.5919 11.7369 81.747 12.3573 82.0573 13.1446L88.4278 29.465C90.0503 25.2418 91.4104 21.7105 92.5079 18.8711L90.611 14.111C89.7521 11.9636 88.9051 10.7348 88.0699 10.4246V9.99512C88.8811 10.186 89.7401 10.2814 90.6468 10.2814L93.188 9.99512V10.4246C92.7822 10.5439 92.5676 10.8302 92.5437 11.2836C92.5437 11.7369 92.6987 12.3573 93.009 13.1446L99.3797 29.465C103.507 18.6086 105.571 13.1685 105.571 13.1446C105.882 12.3334 106.037 11.7011 106.037 11.2478C106.037 10.7706 105.822 10.4723 105.392 10.353V9.99512C106.084 10.0905 106.574 10.1502 106.86 10.1741ZM114.381 10.4246C113.927 10.5678 113.605 10.866 113.414 11.3193C113.224 11.7727 113.128 12.5481 113.128 13.6457C113.128 23.3568 113.128 28.2123 113.128 28.2123C113.128 29.477 113.212 30.3597 113.379 30.8608C113.57 31.3619 113.904 31.684 114.381 31.8271V32.2208H109.263V31.8271C109.74 31.684 110.062 31.3619 110.229 30.8608C110.42 30.3597 110.515 29.477 110.515 28.2123V13.5026C110.515 12.4766 110.42 11.7488 110.229 11.3193C110.038 10.866 109.716 10.5678 109.263 10.4246V9.99512C110.074 10.186 110.933 10.2814 111.84 10.2814L114.381 9.99512V10.4246ZM132.93 10.2814C133.432 10.2814 133.932 10.186 134.434 9.99512H134.469V10.4246C133.992 10.5678 133.658 10.866 133.467 11.3193C133.276 11.7727 133.181 12.5481 133.181 13.6457V32.2208H132.787L118.077 13.3952V28.2123C118.077 29.477 118.161 30.3597 118.328 30.8608C118.519 31.3619 118.865 31.684 119.366 31.8271V32.2208H116.288V31.8271C116.765 31.684 117.087 31.3619 117.254 30.8608C117.445 30.3597 117.541 29.477 117.541 28.2123V13.5026C117.541 12.4766 117.445 11.7488 117.254 11.3193C117.063 10.866 116.741 10.5678 116.288 10.4246V9.99512C116.789 10.186 117.302 10.2814 117.827 10.2814C118.066 10.2814 118.28 10.2576 118.471 10.2098C118.662 10.1621 118.805 10.1144 118.901 10.0667L119.008 9.99512L132.644 27.6756V13.7173C132.644 11.8085 132.143 10.7109 131.141 10.4246V9.99512C131.809 10.186 132.406 10.2814 132.93 10.2814ZM152.888 10.2814C153.389 10.2814 153.89 10.186 154.391 9.99512H154.427V10.4246C153.949 10.5678 153.615 10.866 153.425 11.3193C153.234 11.7727 153.138 12.5481 153.138 13.6457V32.2208H152.744L138.035 13.3952V28.2123C138.035 29.477 138.118 30.3597 138.285 30.8608C138.476 31.3619 138.822 31.684 139.323 31.8271V32.2208H136.245V31.8271C136.722 31.684 137.045 31.3619 137.212 30.8608C137.402 30.3597 137.498 29.477 137.498 28.2123V13.5026C137.498 12.4766 137.402 11.7488 137.212 11.3193C137.021 10.866 136.699 10.5678 136.245 10.4246V9.99512C136.746 10.186 137.259 10.2814 137.784 10.2814C138.023 10.2814 138.238 10.2576 138.428 10.2098C138.619 10.1621 138.763 10.1144 138.858 10.0667L138.965 9.99512L152.601 27.6756V13.7173C152.601 11.8085 152.1 10.7109 151.098 10.4246V9.99512C151.766 10.186 152.363 10.2814 152.888 10.2814ZM171.771 10.2456C172.344 10.2456 172.869 10.1621 173.345 9.99512V10.4246C172.869 10.5916 172.368 10.9257 171.843 11.4267C171.341 11.9278 170.912 12.4885 170.554 13.1089L165.473 22.1638V28.2123C165.473 29.5008 165.556 30.3955 165.723 30.8966C165.913 31.3737 166.247 31.684 166.725 31.8271V32.2208H161.572V31.8271C162.047 31.684 162.37 31.3619 162.538 30.8608C162.728 30.3597 162.812 29.477 162.788 28.2123V22.2354L158.207 13.8605C156.966 11.8801 155.94 10.7348 155.129 10.4246V9.99512C156.083 10.186 157.014 10.2814 157.92 10.2814C158.231 10.2814 158.588 10.2576 158.994 10.2098C159.424 10.1621 159.781 10.1144 160.068 10.0667L160.462 9.99512V10.3888C159.698 10.6274 159.734 11.4744 160.569 12.9299C163.718 18.5848 165.294 21.4122 165.294 21.4122C168.299 16.0675 169.922 13.1804 170.161 12.751C170.327 12.4646 170.447 12.1664 170.519 11.8562C170.615 11.546 170.639 11.2478 170.591 10.9614C170.543 10.6751 170.399 10.4843 170.161 10.3888V9.99512C170.709 10.1621 171.247 10.2456 171.771 10.2456Z" fill="black"/>
<path d="M93.0111 47.4344C93.1004 47.47 93.2163 47.5058 93.3591 47.5414C93.8054 47.6842 94.1444 47.8003 94.3765 47.8895C94.6085 47.9788 94.9029 48.1215 95.2598 48.3178C95.6346 48.4963 95.9114 48.6926 96.0897 48.9067C96.2861 49.1031 96.4556 49.3708 96.5985 49.7099C96.759 50.0311 96.8393 50.3971 96.8393 50.8075C96.8393 51.8069 96.4734 52.6458 95.7418 53.324C95.0101 54.0021 93.9927 54.3412 92.6899 54.3412C91.744 54.3412 90.8249 54.1449 89.9326 53.7522C89.3258 53.4846 88.8617 53.083 88.5404 52.5476C88.237 52.0121 88.237 51.45 88.5404 50.861C88.7189 50.4862 89.0045 50.2364 89.3971 50.1114C89.8075 49.9686 90.2002 49.9955 90.575 50.1917C90.9676 50.3702 91.2265 50.6647 91.3514 51.0753C91.4941 51.4678 91.4673 51.8515 91.271 52.2263C91.1462 52.4762 90.9408 52.6814 90.6553 52.842C90.3877 53.0027 90.1109 53.0919 89.8254 53.1098C90.575 53.6987 91.6904 53.9932 93.1718 53.9932C93.8856 53.9932 94.4747 53.7969 94.9387 53.4043C95.4026 53.0116 95.6346 52.503 95.6346 51.8783C95.6346 51.557 95.5632 51.2715 95.4205 51.0216C95.2956 50.754 95.1439 50.5398 94.9654 50.3792C94.8047 50.2185 94.546 50.0579 94.189 49.8973C93.85 49.7189 93.5645 49.5849 93.3324 49.4958C93.1004 49.4065 92.7523 49.2905 92.2884 49.1477C91.6458 48.9336 91.1372 48.755 90.7624 48.6123C90.4054 48.4695 90.0306 48.2733 89.6381 48.0233C89.2633 47.7557 88.9955 47.4434 88.8349 47.0863C88.6742 46.7294 88.5939 46.3011 88.5939 45.8013C88.5939 44.9625 88.8973 44.2576 89.5041 43.6864C90.1288 43.1154 90.9855 42.7762 92.0741 42.6692C93.0736 42.5265 93.9659 42.6068 94.7512 42.9102C95.9648 43.392 96.5182 44.1149 96.411 45.0786C96.3575 45.4891 96.1434 45.8192 95.7686 46.0691C95.4115 46.3011 95.0189 46.3725 94.5906 46.2832C94.1802 46.2119 93.8589 45.9977 93.6269 45.6408C93.3949 45.2838 93.3145 44.9 93.3859 44.4897C93.4931 43.9542 93.8142 43.5884 94.3496 43.392C93.7251 43.0708 93.0469 42.9102 92.3151 42.9102C91.5476 42.9102 90.932 43.0886 90.468 43.4456C90.0039 43.7846 89.7719 44.2487 89.7719 44.8376C89.7719 45.4802 90.0396 45.9888 90.575 46.3636C91.1283 46.7205 91.9403 47.0775 93.0111 47.4344ZM109.235 51.2626C109.235 52.1907 109.297 52.8331 109.422 53.1901C109.547 53.5292 109.788 53.7522 110.145 53.8594V54.1538H108.218C107.718 54.1538 107.468 53.8504 107.468 53.2436V52.0925C106.004 53.6095 104.532 54.368 103.051 54.368C100.731 54.368 99.5706 52.9937 99.5706 50.2454V46.0156C99.5706 45.2659 99.4992 44.7573 99.3564 44.4897C99.2137 44.2219 98.9816 44.0612 98.6604 44.0077V43.6598C99.1244 43.6598 99.5527 43.5705 99.9453 43.392C100.356 43.2136 100.641 43.0351 100.802 42.8565L101.043 42.5889H101.337V49.8169C101.337 51.1377 101.534 52.1014 101.926 52.7082C102.319 53.2971 102.97 53.5916 103.881 53.5916C105.059 53.5916 106.254 52.9402 107.468 51.6374V46.0156C107.468 45.2659 107.397 44.7573 107.254 44.4897C107.129 44.2219 106.897 44.0612 106.558 44.0077V43.6598C107.022 43.6598 107.45 43.5705 107.843 43.392C108.253 43.2136 108.539 43.0351 108.699 42.8565L108.967 42.5889H109.262L109.235 51.2626ZM114.473 39.6708C114.241 39.9028 113.947 40.0189 113.59 40.0189C113.233 40.0189 112.93 39.9028 112.68 39.6708C112.448 39.4211 112.332 39.1266 112.332 38.7874C112.332 38.4127 112.448 38.1092 112.68 37.8772C112.93 37.6273 113.233 37.5024 113.59 37.5024C113.947 37.5024 114.241 37.6273 114.473 37.8772C114.723 38.1092 114.848 38.4127 114.848 38.7874C114.848 39.1266 114.723 39.4211 114.473 39.6708ZM114.607 51.2626C114.607 52.1728 114.67 52.8064 114.795 53.1633C114.937 53.5202 115.178 53.7522 115.517 53.8594V54.1538H111.93V53.8594C112.287 53.7522 112.528 53.5292 112.653 53.1901C112.778 52.8331 112.84 52.1907 112.84 51.2626V46.0423C112.84 45.2927 112.769 44.7841 112.626 44.5163C112.483 44.2487 112.251 44.088 111.93 44.0345V43.6864C112.394 43.6864 112.822 43.5973 113.215 43.4188C113.626 43.2403 113.911 43.0619 114.072 42.8834L114.313 42.5889H114.607V51.2626ZM123.142 52.6814C123.16 52.7172 123.205 52.8331 123.276 53.0295C122.33 53.9218 121.411 54.368 120.519 54.368C118.984 54.368 118.217 53.2882 118.217 51.1288V43.0975H116.771V42.7762C117.895 42.7762 118.797 42.0267 119.475 40.5275C119.618 40.1706 119.689 39.9921 119.689 39.9921H120.01V42.7762H121.938V43.0975H120.01V51.1288C120.01 52.5565 120.546 53.2705 121.616 53.2705C122.134 53.2705 122.643 53.074 123.142 52.6814ZM134.817 50.9681L135.031 51.1823C133.461 53.3061 131.667 54.368 129.65 54.368C129.008 54.368 128.374 54.2521 127.75 54.02C127.125 53.788 126.545 53.4488 126.009 53.0027C125.492 52.5565 125.072 51.9765 124.751 51.2626C124.43 50.5309 124.269 49.7099 124.269 48.7997C124.269 46.9972 124.858 45.5158 126.036 44.3558C127.214 43.1957 128.615 42.6157 130.239 42.6157C131.631 42.6157 132.738 43.0082 133.559 43.7936C134.38 44.561 134.808 45.5158 134.844 46.658H125.956C125.902 46.9972 125.875 47.3452 125.875 47.7021C125.875 49.2548 126.322 50.5219 127.214 51.5035C128.106 52.4672 129.293 52.9492 130.775 52.9492C132.309 52.9492 133.657 52.2889 134.817 50.9681ZM129.49 43.044C128.562 43.0261 127.794 43.3206 127.187 43.9274C126.598 44.5342 126.206 45.3374 126.009 46.3367H133.023C132.898 45.4979 132.515 44.7394 131.872 44.0612C131.247 43.383 130.453 43.044 129.49 43.044ZM141.544 47.4344C141.633 47.47 141.749 47.5058 141.891 47.5414C142.338 47.6842 142.677 47.8003 142.909 47.8895C143.141 47.9788 143.435 48.1215 143.792 48.3178C144.167 48.4963 144.444 48.6926 144.622 48.9067C144.818 49.1031 144.988 49.3708 145.131 49.7099C145.291 50.0311 145.372 50.3971 145.372 50.8075C145.372 51.8069 145.006 52.6458 144.274 53.324C143.542 54.0021 142.525 54.3412 141.222 54.3412C140.276 54.3412 139.357 54.1449 138.465 53.7522C137.858 53.4846 137.394 53.083 137.073 52.5476C136.769 52.0121 136.769 51.45 137.073 50.861C137.251 50.4862 137.537 50.2364 137.929 50.1114C138.34 49.9686 138.733 49.9955 139.107 50.1917C139.5 50.3702 139.759 50.6647 139.884 51.0753C140.026 51.4678 140 51.8515 139.803 52.2263C139.678 52.4762 139.473 52.6814 139.188 52.842C138.92 53.0027 138.643 53.0919 138.358 53.1098C139.107 53.6987 140.223 53.9932 141.704 53.9932C142.418 53.9932 143.007 53.7969 143.471 53.4043C143.935 53.0116 144.167 52.503 144.167 51.8783C144.167 51.557 144.096 51.2715 143.953 51.0216C143.828 50.754 143.676 50.5398 143.498 50.3792C143.337 50.2185 143.078 50.0579 142.721 49.8973C142.382 49.7189 142.097 49.5849 141.865 49.4958C141.633 49.4065 141.285 49.2905 140.821 49.1477C140.178 48.9336 139.67 48.755 139.295 48.6123C138.938 48.4695 138.563 48.2733 138.17 48.0233C137.796 47.7557 137.528 47.4434 137.367 47.0863C137.207 46.7294 137.126 46.3011 137.126 45.8013C137.126 44.9625 137.43 44.2576 138.036 43.6864C138.661 43.1154 139.518 42.7762 140.606 42.6692C141.606 42.5265 142.498 42.6068 143.284 42.9102C144.497 43.392 145.05 44.1149 144.943 45.0786C144.89 45.4891 144.676 45.8192 144.301 46.0691C143.944 46.3011 143.551 46.3725 143.123 46.2832C142.712 46.2119 142.391 45.9977 142.159 45.6408C141.927 45.2838 141.847 44.9 141.918 44.4897C142.025 43.9542 142.347 43.5884 142.882 43.392C142.257 43.0708 141.579 42.9102 140.847 42.9102C140.08 42.9102 139.464 43.0886 139 43.4456C138.536 43.7846 138.304 44.2487 138.304 44.8376C138.304 45.4802 138.572 45.9888 139.107 46.3636C139.661 46.7205 140.473 47.0775 141.544 47.4344Z" fill="black"/>
</g>
<defs>
<clipPath id="clip0_67_1628">
<rect width="173.099" height="61" fill="white" transform="translate(0.392578)"/>
</clipPath>
</defs>
</svg>
