<svg width="174" height="61" viewBox="0 0 174 61" fill="none" xmlns="http://www.w3.org/2000/svg">
<path d="M12.0743 36.7585L22.967 25.8657L33.4239 36.7585L22.967 47.2154L12.0743 36.7585Z" stroke="black" stroke-width="1.9592"/>
<path d="M1.8042 26.295C17.64 16.3598 26.8193 16.6163 43.7172 26.295" stroke="black" stroke-width="1.9592"/>
<path d="M0.00012207 13.6658H45.5216" stroke="black" stroke-width="1.9592"/>
<path d="M65.821 32.2208V31.8271C66.3221 31.684 66.6561 31.3737 66.8232 30.8966C67.014 30.3955 67.1095 29.5008 67.1095 28.2123V11.6057C67.1095 11.2955 67.002 11.045 66.7874 10.8541C66.5726 10.6393 66.3221 10.532 66.0358 10.532H64.962C63.8168 10.532 62.8981 10.7586 62.2062 11.212C61.5143 11.6415 60.9058 12.4288 60.381 13.5741L60.0229 13.5026L60.202 9.99512H76.5581L76.7371 13.5026L76.4149 13.5741C75.8662 12.4288 75.2338 11.6415 74.5181 11.212C73.826 10.7586 72.8717 10.532 71.6548 10.532H70.8316C70.5215 10.532 70.259 10.6393 70.0442 10.8541C69.8296 11.045 69.7221 11.2955 69.7221 11.6057V28.2123C69.7221 29.5008 69.8056 30.3955 69.9727 30.8966C70.1636 31.3737 70.5095 31.684 71.0106 31.8271V32.2208H65.821ZM106.467 10.1741C106.61 10.1741 106.813 10.1621 107.076 10.1383C107.338 10.1144 107.565 10.0906 107.756 10.0667C107.947 10.019 108.03 9.99512 108.006 9.99512V10.3172C107.219 10.6274 106.503 11.6057 105.859 13.252L98.3787 32.3999H97.4838L92.4016 19.5868L87.4268 32.3999H86.5321L79.2667 14.111C78.4077 11.9636 77.5606 10.7348 76.7256 10.4246V9.99512C77.5368 10.186 78.3958 10.2814 79.3025 10.2814L81.8435 9.99512V10.4246C81.4379 10.5439 81.2232 10.8302 81.1994 11.2836C81.1994 11.7369 81.3544 12.3573 81.6647 13.1446L88.0352 29.465C89.6578 25.2418 91.0178 21.7105 92.1153 18.8711L90.2184 14.111C89.3595 11.9636 88.5125 10.7348 87.6773 10.4246V9.99512C88.4885 10.186 89.3475 10.2814 90.2542 10.2814L92.7954 9.99512V10.4246C92.3897 10.5439 92.1751 10.8302 92.1511 11.2836C92.1511 11.7369 92.3062 12.3573 92.6164 13.1446L98.9871 29.465C103.115 18.6086 105.179 13.1685 105.179 13.1446C105.489 12.3334 105.644 11.7011 105.644 11.2478C105.644 10.7706 105.429 10.4723 105 10.353V9.99512C105.692 10.0905 106.181 10.1502 106.467 10.1741ZM113.988 10.4246C113.535 10.5678 113.213 10.866 113.022 11.3193C112.831 11.7727 112.736 12.5481 112.736 13.6457C112.736 23.3568 112.736 28.2123 112.736 28.2123C112.736 29.477 112.819 30.3597 112.986 30.8608C113.177 31.3619 113.511 31.684 113.988 31.8271V32.2208H108.87V31.8271C109.347 31.684 109.669 31.3619 109.836 30.8608C110.027 30.3597 110.123 29.477 110.123 28.2123V13.5026C110.123 12.4766 110.027 11.7488 109.836 11.3193C109.646 10.866 109.324 10.5678 108.87 10.4246V9.99512C109.681 10.186 110.54 10.2814 111.447 10.2814L113.988 9.99512V10.4246ZM132.538 10.2814C133.039 10.2814 133.54 10.186 134.041 9.99512H134.077V10.4246C133.6 10.5678 133.266 10.866 133.075 11.3193C132.884 11.7727 132.788 12.5481 132.788 13.6457V32.2208H132.395L117.685 13.3952V28.2123C117.685 29.477 117.768 30.3597 117.935 30.8608C118.126 31.3619 118.472 31.684 118.973 31.8271V32.2208H115.895V31.8271C116.373 31.684 116.695 31.3619 116.862 30.8608C117.053 30.3597 117.148 29.477 117.148 28.2123V13.5026C117.148 12.4766 117.053 11.7488 116.862 11.3193C116.671 10.866 116.349 10.5678 115.895 10.4246V9.99512C116.397 10.186 116.909 10.2814 117.434 10.2814C117.673 10.2814 117.888 10.2576 118.079 10.2098C118.269 10.1621 118.413 10.1144 118.508 10.0667L118.616 9.99512L132.252 27.6756V13.7173C132.252 11.8085 131.75 10.7109 130.748 10.4246V9.99512C131.416 10.186 132.013 10.2814 132.538 10.2814ZM152.495 10.2814C152.996 10.2814 153.497 10.186 153.998 9.99512H154.034V10.4246C153.557 10.5678 153.223 10.866 153.032 11.3193C152.841 11.7727 152.746 12.5481 152.746 13.6457V32.2208H152.352L137.642 13.3952V28.2123C137.642 29.477 137.726 30.3597 137.893 30.8608C138.084 31.3619 138.429 31.684 138.931 31.8271V32.2208H135.853V31.8271C136.33 31.684 136.652 31.3619 136.819 30.8608C137.01 30.3597 137.105 29.477 137.105 28.2123V13.5026C137.105 12.4766 137.01 11.7488 136.819 11.3193C136.628 10.866 136.306 10.5678 135.853 10.4246V9.99512C136.354 10.186 136.867 10.2814 137.392 10.2814C137.63 10.2814 137.845 10.2576 138.036 10.2098C138.227 10.1621 138.37 10.1144 138.465 10.0667L138.573 9.99512L152.209 27.6756V13.7173C152.209 11.8085 151.708 10.7109 150.706 10.4246V9.99512C151.374 10.186 151.97 10.2814 152.495 10.2814ZM171.378 10.2456C171.951 10.2456 172.477 10.1621 172.953 9.99512V10.4246C172.477 10.5916 171.975 10.9257 171.45 11.4267C170.949 11.9278 170.519 12.4885 170.161 13.1089L165.08 22.1638V28.2123C165.08 29.5008 165.163 30.3955 165.331 30.8966C165.521 31.3737 165.855 31.684 166.332 31.8271V32.2208H161.179V31.8271C161.655 31.684 161.977 31.3619 162.145 30.8608C162.335 30.3597 162.42 29.477 162.396 28.2123V22.2354L157.814 13.8605C156.573 11.8801 155.547 10.7348 154.736 10.4246V9.99512C155.691 10.186 156.621 10.2814 157.528 10.2814C157.838 10.2814 158.196 10.2576 158.601 10.2098C159.031 10.1621 159.389 10.1144 159.675 10.0667L160.069 9.99512V10.3888C159.305 10.6274 159.341 11.4744 160.176 12.9299C163.325 18.5848 164.901 21.4122 164.901 21.4122C167.907 16.0675 169.529 13.1804 169.768 12.751C169.935 12.4646 170.054 12.1664 170.126 11.8562C170.222 11.546 170.246 11.2478 170.198 10.9614C170.15 10.6751 170.006 10.4843 169.768 10.3888V9.99512C170.316 10.1621 170.854 10.2456 171.378 10.2456Z" fill="black"/>
<path d="M92.6186 47.4344C92.7078 47.47 92.8238 47.5058 92.9665 47.5414C93.4128 47.6842 93.7519 47.8003 93.9839 47.8895C94.2159 47.9788 94.5104 48.1215 94.8673 48.3178C95.242 48.4963 95.5188 48.6926 95.6971 48.9067C95.8936 49.1031 96.063 49.3708 96.2059 49.7099C96.3664 50.0311 96.4467 50.3971 96.4467 50.8075C96.4467 51.8069 96.0809 52.6458 95.3492 53.324C94.6175 54.0021 93.6002 54.3412 92.2973 54.3412C91.3515 54.3412 90.4323 54.1449 89.54 53.7522C88.9332 53.4846 88.4691 53.083 88.1478 52.5476C87.8444 52.0121 87.8444 51.45 88.1478 50.861C88.3264 50.4862 88.6119 50.2364 89.0046 50.1114C89.4149 49.9686 89.8076 49.9955 90.1824 50.1917C90.5751 50.3702 90.8339 50.6647 90.9588 51.0753C91.1016 51.4678 91.0747 51.8515 90.8785 52.2263C90.7536 52.4762 90.5482 52.6814 90.2627 52.842C89.9951 53.0027 89.7184 53.0919 89.4328 53.1098C90.1824 53.6987 91.2978 53.9932 92.7792 53.9932C93.493 53.9932 94.0821 53.7969 94.5461 53.4043C95.01 53.0116 95.242 52.503 95.242 51.8783C95.242 51.557 95.1707 51.2715 95.0279 51.0216C94.903 50.754 94.7513 50.5398 94.5728 50.3792C94.4122 50.2185 94.1535 50.0579 93.7964 49.8973C93.4574 49.7189 93.1719 49.5849 92.9399 49.4958C92.7078 49.4065 92.3597 49.2905 91.8958 49.1477C91.2533 48.9336 90.7446 48.755 90.3699 48.6123C90.0128 48.4695 89.638 48.2733 89.2455 48.0233C88.8707 47.7557 88.6029 47.4434 88.4423 47.0863C88.2817 46.7294 88.2013 46.3011 88.2013 45.8013C88.2013 44.9625 88.5047 44.2576 89.1115 43.6864C89.7362 43.1154 90.593 42.7762 91.6815 42.6692C92.681 42.5265 93.5733 42.6068 94.3587 42.9102C95.5723 43.392 96.1256 44.1149 96.0184 45.0786C95.9649 45.4891 95.7508 45.8192 95.376 46.0691C95.019 46.3011 94.6263 46.3725 94.198 46.2832C93.7876 46.2119 93.4663 45.9977 93.2343 45.6408C93.0023 45.2838 92.922 44.9 92.9933 44.4897C93.1005 43.9542 93.4216 43.5884 93.9571 43.392C93.3325 43.0708 92.6543 42.9102 91.9225 42.9102C91.155 42.9102 90.5395 43.0886 90.0754 43.4456C89.6114 43.7846 89.3793 44.2487 89.3793 44.8376C89.3793 45.4802 89.647 45.9888 90.1824 46.3636C90.7357 46.7205 91.5477 47.0775 92.6186 47.4344ZM108.842 51.2626C108.842 52.1907 108.905 52.8331 109.03 53.1901C109.155 53.5292 109.395 53.7522 109.752 53.8594V54.1538H107.825C107.325 54.1538 107.075 53.8504 107.075 53.2436V52.0925C105.612 53.6095 104.14 54.368 102.658 54.368C100.338 54.368 99.178 52.9937 99.178 50.2454V46.0156C99.178 45.2659 99.1066 44.7573 98.9638 44.4897C98.8211 44.2219 98.5891 44.0612 98.2678 44.0077V43.6598C98.7318 43.6598 99.1601 43.5705 99.5528 43.392C99.9633 43.2136 100.249 43.0351 100.409 42.8565L100.65 42.5889H100.945V49.8169C100.945 51.1377 101.141 52.1014 101.534 52.7082C101.926 53.2971 102.578 53.5916 103.488 53.5916C104.666 53.5916 105.862 52.9402 107.075 51.6374V46.0156C107.075 45.2659 107.004 44.7573 106.861 44.4897C106.736 44.2219 106.504 44.0612 106.165 44.0077V43.6598C106.629 43.6598 107.058 43.5705 107.45 43.392C107.861 43.2136 108.146 43.0351 108.307 42.8565L108.575 42.5889H108.869L108.842 51.2626ZM114.081 39.6708C113.849 39.9028 113.554 40.0189 113.197 40.0189C112.84 40.0189 112.537 39.9028 112.287 39.6708C112.055 39.4211 111.939 39.1266 111.939 38.7874C111.939 38.4127 112.055 38.1092 112.287 37.8772C112.537 37.6273 112.84 37.5024 113.197 37.5024C113.554 37.5024 113.849 37.6273 114.081 37.8772C114.331 38.1092 114.455 38.4127 114.455 38.7874C114.455 39.1266 114.331 39.4211 114.081 39.6708ZM114.215 51.2626C114.215 52.1728 114.277 52.8064 114.402 53.1633C114.545 53.5202 114.786 53.7522 115.125 53.8594V54.1538H111.538V53.8594C111.894 53.7522 112.135 53.5292 112.26 53.1901C112.385 52.8331 112.448 52.1907 112.448 51.2626V46.0423C112.448 45.2927 112.376 44.7841 112.234 44.5163C112.091 44.2487 111.859 44.088 111.538 44.0345V43.6864C112.002 43.6864 112.43 43.5973 112.823 43.4188C113.233 43.2403 113.519 43.0619 113.679 42.8834L113.92 42.5889H114.215V51.2626ZM122.75 52.6814C122.768 52.7172 122.812 52.8331 122.884 53.0295C121.938 53.9218 121.019 54.368 120.126 54.368C118.591 54.368 117.824 53.2882 117.824 51.1288V43.0975H116.378V42.7762C117.503 42.7762 118.404 42.0267 119.082 40.5275C119.225 40.1706 119.296 39.9921 119.296 39.9921H119.618V42.7762H121.545V43.0975H119.618V51.1288C119.618 52.5565 120.153 53.2705 121.224 53.2705C121.741 53.2705 122.25 53.074 122.75 52.6814ZM134.424 50.9681L134.638 51.1823C133.068 53.3061 131.274 54.368 129.258 54.368C128.615 54.368 127.981 54.2521 127.357 54.02C126.732 53.788 126.152 53.4488 125.617 53.0027C125.099 52.5565 124.68 51.9765 124.359 51.2626C124.037 50.5309 123.877 49.7099 123.877 48.7997C123.877 46.9972 124.466 45.5158 125.644 44.3558C126.822 43.1957 128.222 42.6157 129.847 42.6157C131.239 42.6157 132.345 43.0082 133.166 43.7936C133.987 44.561 134.415 45.5158 134.451 46.658H125.563C125.51 46.9972 125.483 47.3452 125.483 47.7021C125.483 49.2548 125.929 50.5219 126.822 51.5035C127.714 52.4672 128.901 52.9492 130.382 52.9492C131.917 52.9492 133.264 52.2889 134.424 50.9681ZM129.097 43.044C128.169 43.0261 127.401 43.3206 126.795 43.9274C126.206 44.5342 125.813 45.3374 125.617 46.3367H132.631C132.506 45.4979 132.122 44.7394 131.48 44.0612C130.855 43.383 130.061 43.044 129.097 43.044ZM141.151 47.4344C141.24 47.47 141.356 47.5058 141.499 47.5414C141.945 47.6842 142.284 47.8003 142.516 47.8895C142.748 47.9788 143.043 48.1215 143.4 48.3178C143.774 48.4963 144.051 48.6926 144.23 48.9067C144.426 49.1031 144.595 49.3708 144.738 49.7099C144.899 50.0311 144.979 50.3971 144.979 50.8075C144.979 51.8069 144.613 52.6458 143.882 53.324C143.15 54.0021 142.133 54.3412 140.83 54.3412C139.884 54.3412 138.965 54.1449 138.072 53.7522C137.466 53.4846 137.001 53.083 136.68 52.5476C136.377 52.0121 136.377 51.45 136.68 50.861C136.859 50.4862 137.144 50.2364 137.537 50.1114C137.947 49.9686 138.34 49.9955 138.715 50.1917C139.107 50.3702 139.366 50.6647 139.491 51.0753C139.634 51.4678 139.607 51.8515 139.411 52.2263C139.286 52.4762 139.081 52.6814 138.795 52.842C138.527 53.0027 138.251 53.0919 137.965 53.1098C138.715 53.6987 139.83 53.9932 141.312 53.9932C142.025 53.9932 142.614 53.7969 143.078 53.4043C143.542 53.0116 143.774 52.503 143.774 51.8783C143.774 51.557 143.703 51.2715 143.56 51.0216C143.435 50.754 143.284 50.5398 143.105 50.3792C142.945 50.2185 142.686 50.0579 142.329 49.8973C141.99 49.7189 141.704 49.5849 141.472 49.4958C141.24 49.4065 140.892 49.2905 140.428 49.1477C139.786 48.9336 139.277 48.755 138.902 48.6123C138.545 48.4695 138.17 48.2733 137.778 48.0233C137.403 47.7557 137.135 47.4434 136.975 47.0863C136.814 46.7294 136.734 46.3011 136.734 45.8013C136.734 44.9625 137.037 44.2576 137.644 43.6864C138.269 43.1154 139.125 42.7762 140.214 42.6692C141.213 42.5265 142.106 42.6068 142.891 42.9102C144.105 43.392 144.658 44.1149 144.551 45.0786C144.497 45.4891 144.283 45.8192 143.908 46.0691C143.551 46.3011 143.159 46.3725 142.73 46.2832C142.32 46.2119 141.999 45.9977 141.767 45.6408C141.535 45.2838 141.454 44.9 141.526 44.4897C141.633 43.9542 141.954 43.5884 142.489 43.392C141.865 43.0708 141.187 42.9102 140.455 42.9102C139.687 42.9102 139.072 43.0886 138.608 43.4456C138.144 43.7846 137.912 44.2487 137.912 44.8376C137.912 45.4802 138.179 45.9888 138.715 46.3636C139.268 46.7205 140.08 47.0775 141.151 47.4344Z" fill="black"/>
</svg>
