<svg width="181" height="59" viewBox="0 0 181 59" fill="none" xmlns="http://www.w3.org/2000/svg">
<g clip-path="url(#clip0_178_11)">
<path fill-rule="evenodd" clip-rule="evenodd" d="M24.0225 27.3713L36.3717 40.2351L24.0222 52.5848L11.1583 40.2354L24.0225 27.3713ZM14.0844 40.2056L23.993 49.7178L33.5047 40.2059L23.9927 30.2974L14.0844 40.2056Z" fill="black"/>
<path fill-rule="evenodd" clip-rule="evenodd" d="M23.3704 22.556C16.9783 22.5239 10.6395 24.9374 2.43009 30.088L1.34167 28.3532C9.68558 23.1183 16.421 20.4731 23.3807 20.508C30.3259 20.5429 37.3293 23.2471 46.2068 28.3321L45.1889 30.1092C36.403 25.0767 29.7771 22.5881 23.3704 22.556Z" fill="black"/>
<path fill-rule="evenodd" clip-rule="evenodd" d="M47.584 17.043H0V14.995H47.584V17.043Z" fill="black"/>
<path d="M69.0888 33.7124V33.3009C69.6125 33.1513 69.9618 32.8271 70.1363 32.3282C70.3357 31.8045 70.4356 30.8691 70.4356 29.5223V12.1633C70.4356 11.839 70.3233 11.5771 70.0989 11.3776C69.8743 11.1531 69.6125 11.0409 69.3132 11.0409H68.1908C66.9938 11.0409 66.0335 11.2779 65.3101 11.7517C64.5869 12.2007 63.9509 13.0237 63.4022 14.2209L63.0281 14.1461L63.2151 10.4797H80.3123L80.4993 14.1461L80.1626 14.2209C79.5891 13.0237 78.9281 12.2007 78.1798 11.7517C77.4566 11.2779 76.4589 11.0409 75.1868 11.0409H74.3264C74.0022 11.0409 73.7279 11.1531 73.5033 11.3776C73.2789 11.5771 73.1666 11.839 73.1666 12.1633V29.5223C73.1666 30.8691 73.2539 31.8045 73.4285 32.3282C73.628 32.8271 73.9897 33.1513 74.5134 33.3009V33.7124H69.0888ZM111.576 10.6668C111.726 10.6668 111.938 10.6543 112.213 10.6294C112.487 10.6044 112.724 10.5795 112.923 10.5546C113.123 10.5047 113.21 10.4797 113.185 10.4797V10.8165C112.362 11.1407 111.614 12.1633 110.941 13.8842L103.121 33.8996H102.186L96.8737 20.506L91.6735 33.8996H90.7381L83.1436 14.7821C82.2457 12.5374 81.3603 11.2529 80.4873 10.9287V10.4797C81.3354 10.6793 82.2332 10.779 83.1811 10.779L85.8372 10.4797V10.9287C85.4132 11.0534 85.1888 11.3527 85.1638 11.8266C85.1638 12.3004 85.326 12.9489 85.6502 13.772L92.3095 30.8317C94.0054 26.4172 95.4271 22.7259 96.5745 19.7579L94.5915 14.7821C93.6937 12.5374 92.8083 11.2529 91.9354 10.9287V10.4797C92.7833 10.6793 93.6813 10.779 94.629 10.779L97.2853 10.4797V10.9287C96.8613 11.0534 96.6367 11.3527 96.6119 11.8266C96.6119 12.3004 96.774 12.9489 97.0981 13.772L103.757 30.8317C108.072 19.4835 110.23 13.7969 110.23 13.772C110.554 12.924 110.716 12.263 110.716 11.7891C110.716 11.2903 110.492 10.9786 110.043 10.8539V10.4797C110.766 10.5795 111.277 10.6419 111.576 10.6668ZM119.438 10.9287C118.964 11.0783 118.628 11.3901 118.428 11.864C118.229 12.3379 118.129 13.1484 118.129 14.2957C118.129 24.4469 118.129 29.5223 118.129 29.5223C118.129 30.8443 118.216 31.7671 118.391 32.2908C118.59 32.8146 118.939 33.1513 119.438 33.3009V33.7124H114.088V33.3009C114.587 33.1513 114.924 32.8146 115.099 32.2908C115.298 31.7671 115.398 30.8443 115.398 29.5223V14.1461C115.398 13.0736 115.298 12.3129 115.099 11.864C114.899 11.3901 114.562 11.0783 114.088 10.9287V10.4797C114.936 10.6793 115.834 10.779 116.782 10.779L119.438 10.4797V10.9287ZM138.828 10.779C139.352 10.779 139.876 10.6793 140.4 10.4797H140.437V10.9287C139.938 11.0783 139.589 11.3901 139.39 11.864C139.19 12.3379 139.09 13.1484 139.09 14.2957V33.7124H138.679L123.303 14.0339V29.5223C123.303 30.8443 123.39 31.7671 123.564 32.2908C123.764 32.8146 124.126 33.1513 124.649 33.3009V33.7124H121.432V33.3009C121.931 33.1513 122.267 32.8146 122.442 32.2908C122.642 31.7671 122.741 30.8443 122.741 29.5223V14.1461C122.741 13.0736 122.642 12.3129 122.442 11.864C122.242 11.3901 121.906 11.0783 121.432 10.9287V10.4797C121.956 10.6793 122.492 10.779 123.041 10.779C123.29 10.779 123.515 10.7541 123.714 10.7042C123.914 10.6543 124.063 10.6044 124.163 10.5546L124.275 10.4797L138.529 28.9612V14.3706C138.529 12.3753 138.005 11.228 136.958 10.9287V10.4797C137.656 10.6793 138.28 10.779 138.828 10.779ZM159.69 10.779C160.214 10.779 160.738 10.6793 161.261 10.4797H161.298V10.9287C160.8 11.0783 160.451 11.3901 160.252 11.864C160.051 12.3379 159.952 13.1484 159.952 14.2957V33.7124H159.54L144.164 14.0339V29.5223C144.164 30.8443 144.251 31.7671 144.426 32.2908C144.625 32.8146 144.987 33.1513 145.511 33.3009V33.7124H142.293V33.3009C142.792 33.1513 143.129 32.8146 143.303 32.2908C143.503 31.7671 143.603 30.8443 143.603 29.5223V14.1461C143.603 13.0736 143.503 12.3129 143.303 11.864C143.104 11.3901 142.767 11.0783 142.293 10.9287V10.4797C142.817 10.6793 143.353 10.779 143.902 10.779C144.152 10.779 144.376 10.7541 144.576 10.7042C144.775 10.6543 144.925 10.6044 145.024 10.5546L145.137 10.4797L159.391 28.9612V14.3706C159.391 12.3753 158.867 11.228 157.819 10.9287V10.4797C158.518 10.6793 159.141 10.779 159.69 10.779ZM179.429 10.7416C180.027 10.7416 180.576 10.6543 181.075 10.4797V10.9287C180.576 11.1033 180.052 11.4524 179.504 11.9762C178.98 12.5 178.531 13.0861 178.157 13.7346L172.845 23.1998V29.5223C172.845 30.8691 172.932 31.8045 173.106 32.3282C173.306 32.8271 173.655 33.1513 174.154 33.3009V33.7124H168.767V33.3009C169.266 33.1513 169.603 32.8146 169.776 32.2908C169.977 31.7671 170.064 30.8443 170.038 29.5223V23.2746L165.25 14.5202C163.952 12.4501 162.881 11.2529 162.033 10.9287V10.4797C163.03 10.6793 164.003 10.779 164.951 10.779C165.274 10.779 165.649 10.7541 166.072 10.7042C166.521 10.6543 166.896 10.6044 167.195 10.5546L167.607 10.4797V10.8913C166.809 11.1407 166.846 12.0261 167.719 13.5475C171.011 19.4585 172.658 22.4141 172.658 22.4141C175.801 16.8273 177.497 13.8094 177.745 13.3605C177.92 13.0611 178.045 12.7494 178.12 12.4251C178.22 12.1009 178.244 11.7891 178.194 11.4899C178.145 11.1906 177.995 10.991 177.745 10.8913V10.4797C178.319 10.6543 178.88 10.7416 179.429 10.7416Z" fill="black"/>
<path d="M88.8532 44.7262C88.6502 44.7905 88.5061 44.924 88.4206 45.1269C88.3351 45.3299 88.2924 45.6771 88.2924 46.1686C88.2924 50.5165 88.2924 52.6904 88.2924 52.6904C88.2924 53.2566 88.3298 53.6518 88.4046 53.8763C88.49 54.1005 88.6396 54.2448 88.8532 54.3089V54.4851H86.5618V54.3089C86.786 54.2448 86.9356 54.1005 87.0104 53.8763C87.0959 53.6518 87.1386 53.2566 87.1386 52.6904L87.1226 49.3254H81.7064V52.6904C81.7064 53.2566 81.7438 53.6518 81.8185 53.8763C81.904 54.1005 82.0535 54.2448 82.2672 54.3089V54.4851H79.9757V54.3089C80.1893 54.2448 80.3337 54.1005 80.4084 53.8763C80.4938 53.6518 80.5365 53.2566 80.5365 52.6904V46.1045C80.5365 45.645 80.4938 45.3193 80.4084 45.1269C80.3229 44.924 80.1787 44.7905 79.9757 44.7262V44.534C80.3389 44.6195 80.7235 44.6622 81.1295 44.6622L82.2672 44.534V44.7262C82.0642 44.7905 81.92 44.924 81.8345 45.1269C81.749 45.3299 81.7064 45.6771 81.7064 46.1686C81.7064 46.1686 81.7064 47.146 81.7064 49.1009H87.1226V46.1045C87.1226 45.645 87.0799 45.3193 86.9944 45.1269C86.9089 44.924 86.7648 44.7905 86.5618 44.7262V44.534C86.925 44.6195 87.3096 44.6622 87.7154 44.6622L88.8532 44.534V44.7262ZM93.5872 47.5466C94.0251 47.5466 94.4472 47.6161 94.8532 47.7549C95.2591 47.8938 95.633 48.0968 95.9748 48.3639C96.3274 48.631 96.6051 48.9942 96.8081 49.4535C97.0217 49.9128 97.1286 50.431 97.1286 51.008C97.1286 51.5634 97.0164 52.0761 96.7921 52.5462C96.5785 53.0055 96.2953 53.3849 95.9428 53.684C95.601 53.9724 95.2216 54.1968 94.8051 54.357C94.3991 54.5065 93.9931 54.5814 93.5872 54.5814C93.1385 54.5814 92.7059 54.5119 92.2892 54.373C91.8726 54.2341 91.4934 54.0312 91.1514 53.7641C90.8097 53.4863 90.5319 53.1231 90.3182 52.6744C90.1153 52.2257 90.0138 51.7129 90.0138 51.1361C90.0138 50.1106 90.3664 49.2559 91.0713 48.5722C91.7871 47.8884 92.6258 47.5466 93.5872 47.5466ZM93.9879 54.2929C94.6822 54.2929 95.2056 54.0579 95.5582 53.5878C95.9214 53.1178 96.103 52.5248 96.103 51.8091C96.103 51.2108 95.9748 50.6019 95.7185 49.9823C95.4727 49.3628 95.1095 48.8392 94.6288 48.412C94.1587 47.9739 93.6407 47.7709 93.0745 47.803C92.412 47.835 91.91 48.0914 91.5681 48.5722C91.2263 49.0423 91.0553 49.6405 91.0553 50.3669C91.0553 50.9651 91.1675 51.5634 91.3919 52.1616C91.6269 52.7492 91.9741 53.2514 92.4334 53.668C92.8929 54.0845 93.4109 54.2929 93.9879 54.2929ZM101.686 53.5717C101.696 53.5932 101.723 53.6626 101.766 53.7801C101.199 54.3143 100.649 54.5814 100.115 54.5814C99.1964 54.5814 98.737 53.9349 98.737 52.6423V47.835H97.8718V47.6428C98.5447 47.6428 99.0843 47.1941 99.4902 46.2967C99.5757 46.0831 99.6183 45.9762 99.6183 45.9762H99.8107V47.6428H100.964V47.835H99.8107V52.6423C99.8107 53.497 100.131 53.9243 100.772 53.9243C101.082 53.9243 101.386 53.8068 101.686 53.5717ZM108.674 52.5462L108.802 52.6744C107.862 53.9457 106.788 54.5814 105.581 54.5814C105.196 54.5814 104.817 54.5119 104.443 54.373C104.069 54.2341 103.722 54.0312 103.402 53.7641C103.092 53.497 102.841 53.1499 102.648 52.7224C102.456 52.2845 102.36 51.793 102.36 51.2482C102.36 50.1693 102.713 49.2825 103.418 48.5882C104.123 47.8938 104.961 47.5466 105.934 47.5466C106.767 47.5466 107.429 47.7817 107.921 48.2516C108.412 48.7111 108.668 49.2825 108.69 49.9663H103.37C103.338 50.1693 103.322 50.3775 103.322 50.5913C103.322 51.5207 103.589 52.2791 104.123 52.8668C104.657 53.4436 105.367 53.7321 106.254 53.7321C107.173 53.7321 107.979 53.3367 108.674 52.5462ZM105.485 47.803C104.929 47.7923 104.47 47.9685 104.107 48.3319C103.754 48.6951 103.519 49.1758 103.402 49.774H107.6C107.525 49.2719 107.296 48.8178 106.911 48.412C106.537 48.006 106.062 47.803 105.485 47.803ZM111.308 52.7224C111.308 53.2674 111.345 53.6466 111.42 53.8602C111.505 54.0739 111.65 54.2128 111.853 54.2769V54.4531H109.705V54.2769C109.919 54.2128 110.063 54.0793 110.138 53.8763C110.213 53.6626 110.25 53.278 110.25 52.7224V45.5115C110.25 45.0628 110.207 44.7584 110.122 44.5981C110.037 44.4379 109.898 44.3418 109.705 44.3098V44.1014C109.983 44.1014 110.24 44.0479 110.475 43.9412C110.72 43.8343 110.891 43.7275 110.987 43.6206L111.132 43.4604H111.308V52.7224ZM124.206 52.0815L125.953 54.357H124.719L123.629 52.9629C123.597 52.9949 123.549 53.043 123.485 53.107C123.421 53.1711 123.282 53.2886 123.068 53.4596C122.854 53.6306 122.63 53.7854 122.395 53.9243C122.16 54.0525 121.856 54.1754 121.482 54.2929C121.118 54.4104 120.75 54.4799 120.376 54.5012C119.703 54.5332 119.083 54.373 118.517 54.0204C117.951 53.668 117.588 53.1819 117.428 52.5622C117.363 52.3272 117.326 52.0975 117.315 51.8731C117.315 51.6382 117.342 51.4298 117.395 51.2482C117.46 51.056 117.529 50.8744 117.604 50.7034C117.689 50.5325 117.796 50.3775 117.924 50.2387C118.063 50.0892 118.191 49.9556 118.309 49.8381C118.426 49.7206 118.565 49.6085 118.725 49.5016C118.896 49.3948 119.041 49.3093 119.158 49.2453C119.276 49.1704 119.409 49.0957 119.559 49.0208C119.719 48.9461 119.831 48.8979 119.895 48.8767C119.97 48.8446 120.061 48.8072 120.168 48.7645C120.189 48.7538 120.205 48.7484 120.216 48.7484C120.205 48.7271 120.109 48.5882 119.927 48.3319C119.746 48.0648 119.623 47.8724 119.559 47.7549C119.495 47.6374 119.42 47.4666 119.334 47.2421C119.26 47.0071 119.222 46.7828 119.222 46.5692C119.233 46.0671 119.393 45.645 119.703 45.3032C120.013 44.9613 120.456 44.7637 121.033 44.7102C121.556 44.6676 122 44.7957 122.363 45.0948C122.737 45.394 122.94 45.7892 122.972 46.2807C122.993 46.5478 122.951 46.8041 122.844 47.0499C122.737 47.2956 122.598 47.4986 122.427 47.6588C122.256 47.819 122.085 47.9633 121.914 48.0914C121.743 48.209 121.599 48.2997 121.482 48.3639L121.289 48.444L124.078 51.8731C124.43 51.2322 124.676 50.5539 124.815 49.8381H125.023C124.948 50.2013 124.842 50.5699 124.703 50.9437C124.574 51.3177 124.462 51.6008 124.366 51.793L124.206 52.0815ZM120.2 46.8255L121.177 48.3157C121.455 48.2196 121.701 47.9846 121.914 47.6107C122.128 47.2261 122.235 46.8201 122.235 46.3928C122.246 45.9549 122.144 45.5916 121.93 45.3032C121.727 45.0041 121.45 44.8546 121.097 44.8546C120.648 44.8546 120.312 45.0522 120.088 45.4474C119.863 45.832 119.901 46.2913 120.2 46.8255ZM120.713 53.9243C121.289 53.9671 121.824 53.8602 122.315 53.6038C122.817 53.3475 123.196 53.075 123.453 52.7867L120.344 48.9087C120.248 48.9408 120.13 48.9888 119.991 49.0529C119.853 49.1063 119.634 49.2292 119.334 49.4215C119.046 49.6137 118.838 49.8061 118.709 49.9983C118.432 50.415 118.304 50.853 118.325 51.3123C118.357 51.761 118.48 52.1776 118.693 52.5622C118.907 52.9362 119.196 53.2514 119.559 53.5077C119.933 53.7641 120.317 53.9029 120.713 53.9243ZM134.971 48.9247C135.377 49.0743 135.692 49.2024 135.916 49.3093C136.141 49.4055 136.408 49.5444 136.718 49.726C137.027 49.9076 137.262 50.0892 137.423 50.2708C137.583 50.4417 137.722 50.6606 137.839 50.9277C137.968 51.1842 138.032 51.4673 138.032 51.777C138.032 52.6317 137.695 53.3207 137.022 53.8442C136.36 54.3676 135.585 54.6295 134.699 54.6295C133.887 54.6295 133.102 54.4745 132.343 54.1648C131.969 54.0472 131.675 53.8282 131.462 53.5077C131.248 53.1871 131.227 52.8507 131.398 52.4982C131.515 52.2631 131.691 52.1082 131.926 52.0335C132.172 51.948 132.407 51.964 132.631 52.0815C132.856 52.199 133.005 52.3807 133.08 52.6263C133.166 52.8614 133.155 53.091 133.048 53.3154C132.888 53.6358 132.626 53.8014 132.263 53.8122C132.915 54.186 133.769 54.373 134.827 54.373C135.425 54.373 135.954 54.1968 136.413 53.8442C136.873 53.4917 137.102 53.0376 137.102 52.4822C137.102 52.2257 137.038 51.98 136.91 51.745C136.782 51.5099 136.638 51.3177 136.477 51.1681C136.317 51.008 136.082 50.8422 135.772 50.6714C135.473 50.5004 135.233 50.3775 135.051 50.3028C134.869 50.2173 134.618 50.1106 134.298 49.9823C134.234 49.961 134.191 49.9449 134.17 49.9342C133.7 49.742 133.315 49.571 133.016 49.4215C132.728 49.2613 132.45 49.0743 132.183 48.8607C131.916 48.647 131.723 48.4012 131.606 48.1235C131.488 47.8458 131.43 47.5252 131.43 47.162C131.43 46.3288 131.745 45.6664 132.375 45.1749C133.005 44.6836 133.844 44.4379 134.891 44.4379C135.308 44.4379 135.778 44.502 136.301 44.6301C136.825 44.7477 137.198 44.9293 137.423 45.1749C137.722 45.4848 137.797 45.8374 137.647 46.2326C137.551 46.4677 137.385 46.6385 137.15 46.7454C136.926 46.8523 136.696 46.8629 136.461 46.7774C136.226 46.6813 136.055 46.5157 135.948 46.2807C135.842 46.0457 135.831 45.8106 135.916 45.5756C136.045 45.2444 136.29 45.0522 136.654 44.9987C136.44 44.8918 136.119 44.8011 135.692 44.7262C135.275 44.6409 134.859 44.6195 134.442 44.6622C133.812 44.7263 133.294 44.9132 132.888 45.2231C132.493 45.5329 132.295 45.9709 132.295 46.5371C132.295 46.7828 132.348 47.0179 132.455 47.2421C132.573 47.4558 132.701 47.6321 132.84 47.7709C132.979 47.9098 133.176 48.054 133.433 48.2036C133.7 48.3531 133.919 48.4653 134.09 48.5401C134.261 48.615 134.501 48.7217 134.811 48.8607C134.885 48.8819 134.939 48.9033 134.971 48.9247ZM145.382 52.7224C145.382 53.278 145.42 53.6626 145.495 53.8763C145.569 54.0793 145.714 54.2128 145.927 54.2769V54.4531H144.774C144.474 54.4531 144.325 54.2715 144.325 53.9083V53.2192C143.449 54.1273 142.568 54.5814 141.681 54.5814C140.292 54.5814 139.598 53.7587 139.598 52.1136V49.5817C139.598 49.133 139.555 48.8286 139.469 48.6683C139.384 48.5081 139.245 48.412 139.053 48.3799V48.1715C139.331 48.1715 139.587 48.1181 139.822 48.0114C140.068 47.9045 140.239 47.7977 140.335 47.6908L140.479 47.5306H140.655V51.8571C140.655 52.6477 140.773 53.2246 141.008 53.5878C141.243 53.9403 141.633 54.1167 142.178 54.1167C142.883 54.1167 143.598 53.7267 144.325 52.9469V49.5817C144.325 49.133 144.282 48.8286 144.197 48.6683C144.122 48.5081 143.983 48.412 143.78 48.3799V48.1715C144.058 48.1715 144.314 48.1181 144.549 48.0114C144.795 47.9045 144.966 47.7977 145.062 47.6908L145.222 47.5306H145.398L145.382 52.7224ZM148.518 45.784C148.379 45.9227 148.203 45.9922 147.989 45.9922C147.776 45.9922 147.594 45.9227 147.445 45.784C147.306 45.6344 147.236 45.458 147.236 45.2552C147.236 45.0308 147.306 44.8492 147.445 44.7102C147.594 44.5607 147.776 44.486 147.989 44.486C148.203 44.486 148.379 44.5607 148.518 44.7102C148.668 44.8492 148.743 45.0308 148.743 45.2552C148.743 45.458 148.668 45.6344 148.518 45.784ZM148.598 52.7224C148.598 53.2674 148.636 53.6466 148.71 53.8602C148.796 54.0739 148.94 54.2128 149.143 54.2769V54.4531H146.996V54.2769C147.209 54.2128 147.354 54.0793 147.429 53.8763C147.503 53.6626 147.541 53.278 147.541 52.7224V49.5977C147.541 49.149 147.498 48.8446 147.413 48.6843C147.327 48.5241 147.188 48.428 146.996 48.396V48.1876C147.274 48.1876 147.53 48.1341 147.765 48.0274C148.011 47.9205 148.182 47.8137 148.278 47.7068L148.422 47.5306H148.598V52.7224ZM153.708 53.5717C153.718 53.5932 153.745 53.6626 153.787 53.7801C153.221 54.3143 152.67 54.5814 152.137 54.5814C151.218 54.5814 150.759 53.9349 150.759 52.6423V47.835H149.893V47.6428C150.567 47.6428 151.106 47.1941 151.512 46.2967C151.597 46.0831 151.64 45.9762 151.64 45.9762H151.832V47.6428H152.986V47.835H151.832V52.6423C151.832 53.497 152.152 53.9243 152.795 53.9243C153.103 53.9243 153.408 53.8068 153.708 53.5717ZM160.695 52.5462L160.824 52.6744C159.883 53.9457 158.81 54.5814 157.603 54.5814C157.219 54.5814 156.838 54.5119 156.465 54.373C156.091 54.2341 155.744 54.0312 155.424 53.7641C155.114 53.497 154.862 53.1499 154.67 52.7224C154.477 52.2845 154.382 51.793 154.382 51.2482C154.382 50.1693 154.735 49.2825 155.44 48.5882C156.145 47.8938 156.983 47.5466 157.955 47.5466C158.789 47.5466 159.451 47.7817 159.942 48.2516C160.434 48.7111 160.69 49.2825 160.711 49.9663H155.392C155.359 50.1693 155.343 50.3775 155.343 50.5913C155.343 51.5207 155.611 52.2791 156.145 52.8668C156.678 53.4436 157.389 53.7321 158.275 53.7321C159.195 53.7321 160.002 53.3367 160.695 52.5462ZM157.506 47.803C156.951 47.7923 156.491 47.9685 156.129 48.3319C155.775 48.6951 155.54 49.1758 155.424 49.774H159.621C159.547 49.2719 159.317 48.8178 158.933 48.412C158.558 48.006 158.084 47.803 157.506 47.803ZM164.722 50.431C164.776 50.4524 164.845 50.4738 164.93 50.495C165.197 50.5805 165.4 50.65 165.539 50.7034C165.677 50.7569 165.854 50.8422 166.068 50.9597C166.292 51.0666 166.457 51.1842 166.565 51.3123C166.682 51.4298 166.784 51.5902 166.869 51.793C166.965 51.9854 167.013 52.2044 167.013 52.4501C167.013 53.0484 166.794 53.5505 166.357 53.9564C165.918 54.3624 165.309 54.5654 164.529 54.5654C163.963 54.5654 163.414 54.4479 162.879 54.2128C162.515 54.0525 162.238 53.8122 162.045 53.4917C161.864 53.1711 161.864 52.8347 162.045 52.4822C162.153 52.2577 162.324 52.1082 162.559 52.0335C162.804 51.948 163.039 51.964 163.264 52.0815C163.499 52.1884 163.653 52.3646 163.728 52.6103C163.813 52.8454 163.798 53.075 163.68 53.2994C163.605 53.449 163.482 53.5717 163.312 53.668C163.152 53.7641 162.985 53.8176 162.815 53.8282C163.264 54.1808 163.932 54.357 164.818 54.357C165.245 54.357 165.598 54.2395 165.876 54.0044C166.153 53.7694 166.292 53.465 166.292 53.091C166.292 52.8988 166.249 52.7278 166.164 52.5783C166.089 52.4181 165.999 52.2898 165.891 52.1937C165.795 52.0976 165.641 52.0014 165.427 51.9053C165.224 51.7984 165.053 51.7183 164.914 51.6649C164.776 51.6114 164.566 51.542 164.289 51.4566C163.905 51.3283 163.601 51.2216 163.376 51.1361C163.162 51.0506 162.937 50.9331 162.702 50.7835C162.478 50.6233 162.318 50.4364 162.222 50.2227C162.126 50.0091 162.078 49.7526 162.078 49.4535C162.078 48.9514 162.259 48.5295 162.623 48.1876C162.996 47.8458 163.509 47.6428 164.161 47.5787C164.759 47.4932 165.294 47.5413 165.764 47.7229C166.49 48.0114 166.821 48.444 166.757 49.0208C166.725 49.2665 166.596 49.4641 166.372 49.6137C166.159 49.7526 165.924 49.7953 165.667 49.742C165.421 49.6992 165.23 49.571 165.09 49.3574C164.951 49.1438 164.903 48.9141 164.947 48.6683C165.011 48.3479 165.203 48.1289 165.523 48.0114C165.149 47.819 164.743 47.7229 164.306 47.7229C163.846 47.7229 163.478 47.8298 163.199 48.0434C162.921 48.2464 162.783 48.5241 162.783 48.8767C162.783 49.2613 162.943 49.5656 163.264 49.7901C163.595 50.0037 164.081 50.2173 164.722 50.431Z" fill="black"/>
</g>
<defs>
<clipPath id="clip0_178_11">
<rect width="181" height="58.5368" fill="black"/>
</clipPath>
</defs>
</svg>
