<svg width="42" height="42" viewBox="0 0 42 42" fill="none" xmlns="http://www.w3.org/2000/svg">
<rect x="6.2632" y="0.368421" width="35.3684" height="35.2781" stroke="#5F462C" stroke-width="0.736842"/>
<rect y="5.98499" width="36.1053" height="36.015" fill="#5F462C"/>
<mask id="mask0_65_1039" style="mask-type:alpha" maskUnits="userSpaceOnUse" x="6" y="11" width="24" height="25">
<rect x="6" y="11.97" width="24" height="23.94" fill="#D9D9D9"/>
</mask>
<g mask="url(#mask0_65_1039)">
<path d="M21 31.8431L15 29.7484L11.0422 31.2753C10.7859 31.3701 10.5481 31.3423 10.3287 31.192C10.1096 31.0417 10 30.8303 10 30.5578V18.3577C10 18.18 10.0433 18.0176 10.1298 17.8706C10.2163 17.7235 10.3422 17.6212 10.5077 17.5637L15 16.0367L21 18.1315L24.9577 16.6046C25.2141 16.5098 25.4519 16.528 25.6712 16.6592C25.8904 16.7902 26 16.9855 26 17.2452V29.5987C26 29.7893 25.9471 29.9549 25.8412 30.0958C25.7356 30.2364 25.5937 30.3355 25.4155 30.393L21 31.8431ZM20.5 30.6269V18.9562L15.5 17.2145V28.8853L20.5 30.6269ZM21.5 30.6269L25 29.4761V17.6557L21.5 18.9562V30.6269ZM11 30.2242L14.5 28.8853V17.2145L11 18.4038V30.2242Z" fill="white"/>
</g>
</svg>
