<svg width="42" height="43" viewBox="0 0 42 43" fill="none" xmlns="http://www.w3.org/2000/svg">
<rect x="6.2632" y="0.815809" width="35.3684" height="35.3684" stroke="#5F462C" stroke-width="0.736842"/>
<rect y="6.44739" width="36.1053" height="36.1053" fill="#5F462C"/>
<mask id="mask0_65_771" style="mask-type:alpha" maskUnits="userSpaceOnUse" x="6" y="12" width="24" height="25">
<rect x="6" y="12.4474" width="23.5789" height="23.5789" fill="#D9D9D9"/>
</mask>
<g mask="url(#mask0_65_771)">
<path d="M19.263 24.6525C18.7088 24.6525 18.2428 24.4636 17.865 24.0858C17.4871 23.7079 17.2981 23.2418 17.2981 22.6876C17.2981 22.1334 17.4871 21.6674 17.865 21.2895C18.2428 20.9116 18.7088 20.7226 19.263 20.7226C19.8173 20.7226 20.2833 20.9116 20.6611 21.2895C21.039 21.6674 21.228 22.1334 21.228 22.6876C21.228 23.2418 21.039 23.7079 20.6611 24.0858C20.2833 24.4636 19.8173 24.6525 19.263 24.6525ZM13.1794 27.789C12.7429 27.789 12.3692 27.6335 12.0584 27.3225C11.7477 27.0118 11.5923 26.6382 11.5923 26.2018V19.1736C11.5923 18.737 11.7477 18.3634 12.0584 18.0526C12.3692 17.7418 12.7429 17.5864 13.1794 17.5864H25.3467C25.7832 17.5864 26.1569 17.7418 26.4676 18.0526C26.7784 18.3634 26.9338 18.737 26.9338 19.1736V26.2018C26.9338 26.6382 26.7784 27.0118 26.4676 27.3225C26.1569 27.6335 25.7832 27.789 25.3467 27.789H13.1794ZM14.1619 26.8065H24.3642C24.3642 26.3669 24.5196 25.9924 24.8304 25.6831C25.1412 25.3739 25.5148 25.2193 25.9514 25.2193V20.156C25.5117 20.156 25.1373 20.0006 24.8282 19.6898C24.5189 19.3789 24.3642 19.0052 24.3642 18.5689H14.1619C14.1619 19.0085 14.0065 19.3829 13.6957 19.692C13.3849 20.0014 13.0113 20.156 12.5747 20.156V25.2193C13.0144 25.2193 13.3888 25.3747 13.6979 25.6855C14.0072 25.9963 14.1619 26.37 14.1619 26.8065ZM24.0243 30.7363H10.2321C9.79552 30.7363 9.42186 30.5809 9.11107 30.2699C8.80029 29.9591 8.6449 29.5855 8.6449 29.1492V20.4959H9.62735V29.1492C9.62735 29.3003 9.69031 29.4388 9.81623 29.5647C9.94231 29.6908 10.0809 29.7539 10.2321 29.7539H24.0243V30.7363ZM13.1794 26.8065H12.5747V18.5689H13.1794C13.0157 18.5689 12.874 18.6287 12.7543 18.7484C12.6346 18.8681 12.5747 19.0098 12.5747 19.1736V26.2018C12.5747 26.3655 12.6346 26.5073 12.7543 26.627C12.874 26.7467 13.0157 26.8065 13.1794 26.8065Z" fill="white"/>
</g>
</svg>
