<svg width="26" height="32" viewBox="0 0 26 32" fill="none" xmlns="http://www.w3.org/2000/svg">
<path d="M13.0061 15.5288C13.7851 15.5288 14.45 15.2514 15.0007 14.6967C15.5516 14.1419 15.8271 13.475 15.8271 12.696C15.8271 11.917 15.5496 11.252 14.9945 10.701C14.4398 10.1503 13.7729 9.875 12.9939 9.875C12.2148 9.875 11.55 10.1524 10.9993 10.7071C10.4483 11.2619 10.1729 11.9288 10.1729 12.7078C10.1729 13.4869 10.4504 14.1519 11.0054 14.7028C11.5602 15.2535 12.2271 15.5288 13.0061 15.5288ZM13 29.4347C16.2891 26.5718 18.8895 23.66 20.801 20.6996C22.7126 17.7392 23.6684 15.1788 23.6684 13.0184C23.6684 9.81681 22.6549 7.17431 20.6278 5.09094C18.6007 3.00786 16.0581 1.96631 13 1.96631C9.94186 1.96631 7.39925 3.00786 5.37217 5.09094C3.34508 7.17431 2.33154 9.81681 2.33154 13.0184C2.33154 15.1788 3.28733 17.7392 5.19892 20.6996C7.1105 23.66 9.71086 26.5718 13 29.4347ZM13 31.7837C8.88748 28.1469 5.78969 24.7551 3.70661 21.6083C1.62323 18.4618 0.581543 15.5985 0.581543 13.0184C0.581543 9.31631 1.787 6.26271 4.19792 3.85763C6.60854 1.45254 9.54256 0.25 13 0.25C16.4574 0.25 19.3914 1.45254 21.802 3.85763C24.213 6.26271 25.4184 9.31631 25.4184 13.0184C25.4184 15.5985 24.3767 18.4618 22.2934 21.6083C20.2103 24.7551 17.1125 28.1469 13 31.7837Z" fill="#1C1B1F"/>
</svg>
