<svg width="42" height="42" viewBox="0 0 42 42" fill="none" xmlns="http://www.w3.org/2000/svg">
<rect x="6.2632" y="0.368421" width="35.3684" height="35.2781" stroke="#5F462C" stroke-width="0.736842"/>
<rect y="5.98499" width="36.1053" height="36.015" fill="#5F462C"/>
<mask id="mask0_135_95" style="mask-type:alpha" maskUnits="userSpaceOnUse" x="6" y="11" width="24" height="25">
<rect x="6" y="11.97" width="24" height="23.94" fill="#D9D9D9"/>
</mask>
<g mask="url(#mask0_135_95)">
<path d="M25.077 23.4028C24.9615 21.5217 24.2438 19.9229 22.924 18.6064C21.6042 17.2897 20.0013 16.5738 18.1155 16.4587V15.4612C19.1988 15.5124 20.2126 15.7525 21.1568 16.1814C22.1009 16.6105 22.9291 17.1803 23.6413 17.8907C24.3534 18.601 24.9246 19.4272 25.3548 20.3692C25.7849 21.311 26.0257 22.3222 26.077 23.4028H25.077ZM21.077 23.4028C20.9615 22.6356 20.6313 21.977 20.0865 21.427C19.5417 20.8771 18.8847 20.551 18.1155 20.4487V19.4512C19.1655 19.5535 20.0593 19.9758 20.797 20.7183C21.5348 21.4606 21.9615 22.3555 22.077 23.4028H21.077ZM24.9308 31.92C23.2449 31.92 21.5168 31.499 19.7463 30.6569C17.9758 29.8147 16.3277 28.6326 14.802 27.1108C13.2892 25.5891 12.1106 23.9484 11.2663 22.1886C10.4221 20.4289 10 18.7082 10 17.0266C10 16.7273 10.1 16.4747 10.3 16.2687C10.5 16.0629 10.75 15.96 11.05 15.96H13.523C13.7948 15.96 14.032 16.0454 14.2345 16.2161C14.4372 16.3868 14.5744 16.6059 14.6463 16.8732L15.1423 19.2517C15.1884 19.5305 15.1801 19.7742 15.1173 19.9827C15.0544 20.1911 14.9435 20.3619 14.7845 20.4949L12.5905 22.5358C13.0007 23.2787 13.4542 23.969 13.951 24.6066C14.4478 25.2441 14.9777 25.848 15.5405 26.4183C16.1212 26.9977 16.7462 27.5364 17.4155 28.0345C18.0847 28.5326 18.8193 29.0029 19.6193 29.4454L21.7578 27.2739C21.9206 27.0987 22.1036 26.9833 22.3068 26.9277C22.5099 26.8721 22.7346 26.8608 22.9808 26.8941L25.0845 27.3238C25.3563 27.3903 25.5769 27.5268 25.7463 27.7335C25.9154 27.94 26 28.1769 26 28.4442V30.8726C26 31.1719 25.8968 31.4212 25.6905 31.6207C25.484 31.8202 25.2308 31.92 24.9308 31.92ZM12.1213 21.5996L14.0405 19.8388C14.1045 19.7876 14.1462 19.7172 14.1655 19.6278C14.1847 19.5382 14.1814 19.4551 14.1558 19.3784L13.7115 17.2645C13.6858 17.1621 13.641 17.0853 13.577 17.0343C13.5128 16.9831 13.4295 16.9575 13.327 16.9575H11.275C11.198 16.9575 11.1339 16.9831 11.0828 17.0343C11.0314 17.0853 11.0058 17.1493 11.0058 17.2261C11.0249 17.9077 11.132 18.6193 11.327 19.361C11.5218 20.1028 11.7866 20.849 12.1213 21.5996ZM20.5713 29.9135C21.2468 30.2473 21.9669 30.4941 22.7318 30.6539C23.4964 30.8138 24.1628 30.8995 24.7308 30.911C24.8078 30.911 24.8718 30.8854 24.923 30.8342C24.9743 30.783 25 30.7191 25 30.6424V28.6397C25 28.5375 24.9743 28.4543 24.923 28.3903C24.8718 28.3265 24.7949 28.2818 24.6923 28.2562L22.8423 27.8781C22.7654 27.8525 22.6982 27.8494 22.6405 27.8686C22.5827 27.8878 22.5218 27.9293 22.4578 27.9933L20.5713 29.9135Z" fill="white"/>
</g>
</svg>
