<svg width="42" height="42" viewBox="0 0 42 42" fill="none" xmlns="http://www.w3.org/2000/svg">
<rect x="6.2632" y="0.368421" width="35.3684" height="35.2781" stroke="#5F462C" stroke-width="0.736842"/>
<rect y="5.98499" width="36.1053" height="36.015" fill="#5F462C"/>
<mask id="mask0_65_905" style="mask-type:alpha" maskUnits="userSpaceOnUse" x="6" y="12" width="24" height="24">
<rect x="6" y="12" width="24" height="24" fill="#D9D9D9"/>
</mask>
<g mask="url(#mask0_65_905)">
<path d="M8.5 32.4615V31.423C9.018 31.359 9.43208 31.1892 9.74225 30.9135C10.0526 30.6378 10.5975 30.5 11.377 30.5C12.1565 30.5 12.734 30.6667 13.1095 31C13.4852 31.3333 14.0115 31.5 14.6885 31.5C15.3653 31.5 15.8916 31.3333 16.2673 31C16.6429 30.6667 17.2205 30.5 18 30.5C18.7795 30.5 19.3635 30.6667 19.752 31C20.1403 31.3333 20.673 31.5 21.35 31.5C22.027 31.5 22.5468 31.3333 22.9095 31C23.2723 30.6667 23.8435 30.5 24.623 30.5C25.4025 30.5 25.9474 30.6378 26.2577 30.9135C26.5679 31.1892 26.982 31.359 27.5 31.423V32.4615C26.9013 32.3847 26.4286 32.2052 26.0818 31.923C25.7349 31.641 25.2487 31.5 24.623 31.5C23.9973 31.5 23.5032 31.6667 23.1405 32C22.7777 32.3333 22.1808 32.5 21.35 32.5C20.5192 32.5 19.9096 32.3333 19.5212 32C19.1327 31.6667 18.6257 31.5 18 31.5C17.3743 31.5 16.8737 31.6667 16.498 32C16.1223 32.3333 15.5192 32.5 14.6885 32.5C13.8577 32.5 13.2544 32.3333 12.8787 32C12.5032 31.6667 12.0027 31.5 11.377 31.5C10.7513 31.5 10.2651 31.641 9.91825 31.923C9.57142 32.2052 9.09867 32.3847 8.5 32.4615ZM8.5 27.9615V26.923C9.018 26.859 9.43208 26.6892 9.74225 26.4135C10.0526 26.1378 10.5975 26 11.377 26C12.1565 26 12.735 26.1667 13.1125 26.5C13.49 26.8333 14.0153 27 14.6885 27C15.3653 27 15.8916 26.8333 16.2673 26.5C16.6429 26.1667 17.2205 26 18 26C18.7795 26 19.3571 26.1667 19.7327 26.5C20.1084 26.8333 20.6347 27 21.3115 27C21.9885 27 22.5148 26.8333 22.8905 26.5C23.266 26.1667 23.8435 26 24.623 26C25.4025 26 25.9474 26.1378 26.2577 26.4135C26.5679 26.6892 26.982 26.859 27.5 26.923V27.9615C26.9013 27.8847 26.4286 27.7052 26.0818 27.423C25.7349 27.141 25.2487 27 24.623 27C23.9973 27 23.506 27.1667 23.149 27.5C22.792 27.8333 22.1923 28 21.35 28C20.5153 28 19.9047 27.8333 19.5182 27.5C19.1317 27.1667 18.6257 27 18 27C17.3667 27 16.867 27.1667 16.501 27.5C16.135 27.8333 15.5308 28 14.6885 28C13.8462 28 13.2401 27.8333 12.8703 27.5C12.5004 27.1667 12.0027 27 11.377 27C10.7513 27 10.2651 27.141 9.91825 27.423C9.57142 27.7052 9.09867 27.8847 8.5 27.9615ZM13.7845 23.1693L17.0135 19.9405L15.475 18.402C14.9378 17.8648 14.393 17.4873 13.8405 17.2693C13.2878 17.0513 12.5872 16.923 11.7385 16.8845V15.5C12.7833 15.5385 13.65 15.6856 14.3385 15.9413C15.027 16.1971 15.7116 16.6654 16.3923 17.3462L22.2155 23.1693C22.086 23.2756 21.952 23.3573 21.8135 23.4145C21.675 23.4715 21.5141 23.5 21.3307 23.5C20.8846 23.5 20.4448 23.3333 20.0115 23C19.5782 22.6667 18.9077 22.5 18 22.5C17.0923 22.5 16.4218 22.6667 15.9885 23C15.5552 23.3333 15.1154 23.5 14.6693 23.5C14.4859 23.5 14.325 23.4715 14.1865 23.4145C14.048 23.3573 13.914 23.2756 13.7845 23.1693ZM22.4307 15.6923C23.0154 15.6923 23.5142 15.8997 23.927 16.3145C24.3398 16.7292 24.5462 17.2269 24.5462 17.8077C24.5462 18.3923 24.3398 18.8909 23.927 19.3038C23.5142 19.7166 23.0154 19.923 22.4307 19.923C21.8461 19.923 21.3473 19.7166 20.9345 19.3038C20.5218 18.8909 20.3155 18.3923 20.3155 17.8077C20.3155 17.2269 20.5218 16.7292 20.9345 16.3145C21.3473 15.8997 21.8461 15.6923 22.4307 15.6923Z" fill="white"/>
</g>
</svg>
