<svg width="42" height="48" viewBox="0 0 42 48" fill="none" xmlns="http://www.w3.org/2000/svg">
<path d="M33.2666 7.52C31.4437 5.43899 30.4392 2.76649 30.4399 0H22.1999V33.0667C22.1364 34.8561 21.3809 36.551 20.0926 37.7945C18.8044 39.038 17.0838 39.7331 15.2933 39.7333C11.5066 39.7333 8.35993 36.64 8.35993 32.8C8.35993 28.2133 12.7866 24.7733 17.3466 26.1867V17.76C8.1466 16.5333 0.0932617 23.68 0.0932617 32.8C0.0932617 41.68 7.45326 48 15.2666 48C23.6399 48 30.4399 41.2 30.4399 32.8V16.0267C33.7813 18.4263 37.7929 19.7137 41.9066 19.7067V11.4667C41.9066 11.4667 36.8933 11.7067 33.2666 7.52Z" fill="#F38120"/>
</svg>
