<svg width="42" height="42" viewBox="0 0 42 42" fill="none" xmlns="http://www.w3.org/2000/svg">
<rect x="6.26332" y="0.368421" width="35.3684" height="35.2781" stroke="#5F462C" stroke-width="0.736842"/>
<rect y="5.98499" width="36.1053" height="36.015" fill="#5F462C"/>
<mask id="mask0_65_782" style="mask-type:alpha" maskUnits="userSpaceOnUse" x="5" y="11" width="25" height="25">
<rect x="5.90625" y="11.8125" width="23.625" height="23.625" fill="#D9D9D9"/>
</mask>
<g mask="url(#mask0_65_782)">
<path d="M16.4543 32.2952C15.8156 32.2952 15.3303 32.1061 14.9984 31.7279C14.6665 31.3496 14.5005 30.9187 14.5005 30.4352C14.5005 30.1128 14.5696 29.7948 14.7078 29.4811C14.8461 29.1675 15.0679 28.911 15.3732 28.7115C15.7468 28.4566 16.0569 28.1139 16.3037 27.6836C16.5504 27.2533 16.7338 26.7763 16.8537 26.2526C16.6921 26.1907 16.5337 26.1194 16.3785 26.0387C16.2233 25.9578 16.0731 25.8531 15.9279 25.7244L13.6259 26.5555C13.3849 26.6413 13.1566 26.7107 12.941 26.7637C12.7253 26.8167 12.5029 26.8432 12.2739 26.8432C11.4249 26.8432 10.6751 26.4627 10.0246 25.7018C9.37392 24.9409 9.04858 23.8271 9.04858 22.3606C9.04858 21.7219 9.2366 21.2366 9.61263 20.9047C9.98866 20.5728 10.4109 20.4069 10.8793 20.4069C11.2174 20.4069 11.5442 20.4759 11.8597 20.6141C12.1752 20.7524 12.4327 20.9742 12.6322 21.2795C12.8872 21.6531 13.2298 21.9632 13.6601 22.21C14.0905 22.4567 14.5675 22.6401 15.0912 22.76C15.153 22.5984 15.2243 22.44 15.305 22.2848C15.3859 22.1296 15.4907 21.9794 15.6193 21.8342L14.7882 19.5322C14.7024 19.3039 14.633 19.0774 14.58 18.8528C14.527 18.628 14.5005 18.4096 14.5005 18.1977C14.5005 17.1982 14.936 16.4079 15.8068 15.8268C16.6775 15.2455 17.7363 14.9549 18.9831 14.9549C19.6218 14.9549 20.1071 15.142 20.439 15.5162C20.7709 15.8903 20.9369 16.3104 20.9369 16.7765C20.9369 17.0954 20.8678 17.4158 20.7297 17.7377C20.5914 18.0594 20.3696 18.3201 20.0642 18.5196C19.6907 18.7745 19.3805 19.1203 19.1338 19.5568C18.887 19.9936 18.7037 20.4738 18.5837 20.9975C18.758 21.072 18.9233 21.1509 19.0796 21.2342C19.236 21.3174 19.3793 21.4145 19.5095 21.5256L21.8115 20.6699C22.0525 20.5841 22.2774 20.5188 22.4863 20.474C22.695 20.4293 22.9138 20.4069 23.1429 20.4069C24.234 20.4069 25.0479 20.8681 25.5844 21.7906C26.1207 22.7132 26.3888 23.7461 26.3888 24.8895C26.3888 25.5281 26.1894 26.0134 25.7906 26.3453C25.3918 26.6772 24.9494 26.8432 24.4634 26.8432C24.1518 26.8432 23.8474 26.7741 23.5501 26.636C23.253 26.4977 23.0047 26.2759 22.8052 25.9705C22.5503 25.597 22.2076 25.2868 21.7773 25.0401C21.347 24.7933 20.8699 24.61 20.3463 24.49C20.2844 24.6516 20.2131 24.8069 20.1324 24.9559C20.0515 25.1047 19.9468 25.258 19.8181 25.4158L20.6492 27.7178C20.7314 27.9444 20.7999 28.1604 20.8547 28.3658C20.9095 28.571 20.9369 28.7734 20.9369 28.9729C20.928 29.8247 20.546 30.5914 19.7908 31.2729C19.0356 31.9544 17.9235 32.2952 16.4543 32.2952ZM17.7231 25.4045C18.2186 25.4045 18.6384 25.2311 18.9824 24.8843C19.3263 24.5373 19.4982 24.1161 19.4982 23.6206C19.4982 23.1251 19.3248 22.7054 18.978 22.3613C18.631 22.0175 18.2098 21.8455 17.7143 21.8455C17.2188 21.8455 16.7991 22.0189 16.455 22.3658C16.1111 22.7128 15.9392 23.134 15.9392 23.6295C15.9392 24.1249 16.1126 24.5447 16.4594 24.8887C16.8064 25.2326 17.2277 25.4045 17.7231 25.4045ZM16.4353 21.1907C16.622 21.0821 16.8129 21.0028 17.008 20.9529C17.2029 20.9031 17.4 20.8762 17.5994 20.8725C17.7306 20.196 17.9556 19.5815 18.2744 19.0287C18.593 18.476 19.0054 18.0343 19.5115 17.7035C19.6565 17.6002 19.7663 17.474 19.8408 17.325C19.9153 17.1761 19.9525 16.9962 19.9525 16.7856C19.9525 16.548 19.8749 16.3476 19.7197 16.1844C19.5645 16.021 19.319 15.9393 18.9831 15.9393C18.3316 15.9393 17.5943 16.0932 16.771 16.4009C15.9479 16.7087 15.5192 17.3102 15.4849 18.2053C15.4849 18.3731 15.5086 18.529 15.556 18.6729C15.6033 18.8168 15.6433 18.9461 15.6761 19.061L16.4353 21.1907ZM12.2668 25.8588C12.4838 25.8588 12.7798 25.7951 13.1547 25.6676L15.3033 24.9084C15.1947 24.747 15.1123 24.5687 15.0562 24.3736C15 24.1787 14.9699 23.969 14.9662 23.7444C14.2897 23.6131 13.6751 23.3881 13.1224 23.0693C12.5697 22.7507 12.128 22.3384 11.7972 21.8322C11.6938 21.6872 11.5573 21.5774 11.3875 21.503C11.2177 21.4285 11.0483 21.3912 10.8793 21.3912C10.6053 21.3912 10.3958 21.4688 10.2508 21.624C10.1056 21.7792 10.033 22.0248 10.033 22.3606C10.033 23.2866 10.2238 24.1011 10.6054 24.8041C10.987 25.5072 11.5408 25.8588 12.2668 25.8588ZM16.4543 31.3108C17.2511 31.3108 18.0353 31.1329 18.8067 30.777C19.5781 30.421 19.9601 29.8196 19.9525 28.9729C19.9525 28.8187 19.9288 28.6741 19.8814 28.5393C19.8341 28.4042 19.7941 28.2875 19.7613 28.1891L19.0021 26.0404C18.8154 26.1617 18.6151 26.2472 18.4011 26.2971C18.1872 26.347 17.9995 26.3738 17.8381 26.3776C17.7068 27.054 17.4818 27.6686 17.163 28.2213C16.8444 28.774 16.4321 29.2158 15.9259 29.5465C15.7935 29.6373 15.686 29.7675 15.6033 29.9373C15.5206 30.1071 15.4811 30.2746 15.4849 30.4398C15.4887 30.6722 15.5663 30.8754 15.7177 31.0494C15.8692 31.2237 16.1147 31.3108 16.4543 31.3108ZM24.4851 25.8588C24.7295 25.8588 24.9439 25.7894 25.1281 25.6506C25.3123 25.5118 25.4045 25.2581 25.4045 24.8895C25.4045 24.238 25.2552 23.4963 24.9568 22.6645C24.6584 21.8329 24.0523 21.4085 23.1384 21.3912C22.9706 21.3912 22.8179 21.4076 22.6805 21.4404C22.5428 21.4733 22.4102 21.5124 22.2828 21.5578L20.1531 22.3416C20.249 22.5157 20.3251 22.7034 20.3812 22.9047C20.4375 23.106 20.4675 23.3063 20.4713 23.5057C21.1477 23.6369 21.7623 23.8619 22.315 24.1807C22.8677 24.4993 23.3095 24.9117 23.6402 25.4178C23.7145 25.5376 23.8332 25.641 23.9963 25.7281C24.1592 25.8153 24.3221 25.8588 24.4851 25.8588Z" fill="white"/>
</g>
</svg>
