<svg width="42" height="42" viewBox="0 0 42 42" fill="none" xmlns="http://www.w3.org/2000/svg">
<rect x="6.2632" y="0.368421" width="35.3684" height="35.2781" stroke="#5F462C" stroke-width="0.736842"/>
<rect y="5.98499" width="36.1053" height="36.015" fill="#5F462C"/>
<mask id="mask0_65_868" style="mask-type:alpha" maskUnits="userSpaceOnUse" x="6" y="12" width="24" height="24">
<rect x="6" y="12" width="24" height="24" fill="#D9D9D9"/>
</mask>
<g mask="url(#mask0_65_868)">
<path d="M11.4827 22.6155C11.5622 22.0667 11.5293 21.5653 11.3838 21.1115C11.2383 20.6577 10.9546 20.1205 10.5328 19.5C10.0853 18.8462 9.78367 18.2587 9.628 17.7375C9.47217 17.2163 9.4205 16.6372 9.473 16H10.4807C10.4244 16.5563 10.4612 17.0538 10.5912 17.4923C10.7214 17.9308 10.9974 18.4602 11.4193 19.0807C11.8859 19.7577 12.1972 20.3568 12.353 20.878C12.5087 21.399 12.5545 21.9782 12.4905 22.6155H11.4827ZM15.4058 22.6155C15.4853 22.0667 15.4532 21.5653 15.3095 21.1115C15.166 20.6577 14.8833 20.1205 14.4615 19.5C14.0142 18.8462 13.7116 18.2587 13.5538 17.7375C13.3961 17.2163 13.3436 16.6372 13.3963 16H14.4037C14.3474 16.5563 14.3843 17.0538 14.5145 17.4923C14.6445 17.9308 14.9204 18.4602 15.3423 19.0807C15.8089 19.7577 16.1202 20.3568 16.276 20.878C16.4317 21.399 16.4775 21.9782 16.4135 22.6155H15.4058ZM19.4057 22.6155C19.4852 22.0667 19.45 21.5653 19.3 21.1115C19.15 20.6577 18.8641 20.1205 18.4423 19.5C17.9949 18.8462 17.6956 18.2587 17.5442 17.7375C17.3929 17.2163 17.3436 16.6372 17.3963 16H18.4038C18.3474 16.5563 18.3843 17.0538 18.5145 17.4923C18.6445 17.9308 18.9204 18.4602 19.3422 19.0807C19.8089 19.7577 20.1202 20.3568 20.276 20.878C20.4317 21.399 20.4775 21.9782 20.4135 22.6155H19.4057ZM11 31C10.4358 31 9.9615 30.8077 9.577 30.423C9.19233 30.0385 9 29.5642 9 29V25H22.0057C22.0249 24.4975 22.1826 24.0465 22.4788 23.647C22.7749 23.2477 23.1641 22.9692 23.6462 22.8115L27.848 21.3962L28.1655 22.3345L23.9635 23.75C23.6737 23.8423 23.4407 24.0144 23.2645 24.2662C23.0882 24.5182 23 24.7974 23 25.1038V29C23 29.5513 22.8077 30.0225 22.423 30.4135C22.0385 30.8045 21.5642 31 21 31H11ZM11 30H21C21.2833 30 21.5208 29.9042 21.7125 29.7125C21.9042 29.5208 22 29.2833 22 29V26H10V29C10 29.2833 10.0958 29.5208 10.2875 29.7125C10.4792 29.9042 10.7167 30 11 30Z" fill="white"/>
</g>
</svg>
