<svg width="28" height="28" viewBox="0 0 28 28" fill="none" xmlns="http://www.w3.org/2000/svg">
<path d="M15.3707 0.666626C16.8707 0.670626 17.632 0.678626 18.2893 0.697293L18.548 0.706626C18.8467 0.717293 19.1413 0.730626 19.4973 0.746626C20.916 0.813293 21.884 1.03729 22.7333 1.36663C23.6133 1.70529 24.3547 2.16396 25.096 2.90396C25.774 3.57049 26.2986 4.37674 26.6333 5.26663C26.9627 6.11596 27.1867 7.08396 27.2533 8.50396C27.2693 8.85863 27.2827 9.15329 27.2933 9.45329L27.3013 9.71196C27.3213 10.368 27.3293 11.1293 27.332 12.6293L27.3333 13.624V15.3706C27.3366 16.3432 27.3264 17.3157 27.3027 18.288L27.2947 18.5466C27.284 18.8466 27.2707 19.1413 27.2547 19.496C27.188 20.916 26.9613 21.8826 26.6333 22.7333C26.2996 23.6237 25.7748 24.4301 25.096 25.096C24.4293 25.7737 23.6231 26.2983 22.7333 26.6333C21.884 26.9626 20.916 27.1866 19.4973 27.2533C19.181 27.2682 18.8645 27.2815 18.548 27.2933L18.2893 27.3013C17.632 27.32 16.8707 27.3293 15.3707 27.332L14.376 27.3333H12.6307C11.6577 27.3366 10.6847 27.3264 9.712 27.3026L9.45333 27.2946C9.13681 27.2826 8.82036 27.2689 8.504 27.2533C7.08533 27.1866 6.11733 26.9626 5.26666 26.6333C4.37689 26.2991 3.57095 25.7744 2.90533 25.096C2.22672 24.4297 1.70163 23.6234 1.36666 22.7333C1.03733 21.884 0.813329 20.916 0.746663 19.496C0.731808 19.1796 0.718474 18.8631 0.706663 18.5466L0.699996 18.288C0.675426 17.3157 0.664313 16.3432 0.666663 15.3706V12.6293C0.662942 11.6568 0.67272 10.6842 0.695996 9.71196L0.70533 9.45329C0.715996 9.15329 0.72933 8.85863 0.74533 8.50396C0.811996 7.08396 1.036 6.11729 1.36533 5.26663C1.70015 4.37583 2.22629 3.56932 2.90666 2.90396C3.57212 2.22592 4.37752 1.70128 5.26666 1.36663C6.11733 1.03729 7.084 0.813293 8.504 0.746626C8.85866 0.730626 9.15466 0.717293 9.45333 0.706626L9.712 0.698626C10.6843 0.674936 11.6568 0.664713 12.6293 0.667959L15.3707 0.666626ZM14 7.33329C12.2319 7.33329 10.5362 8.03567 9.28595 9.28591C8.03571 10.5362 7.33333 12.2318 7.33333 14C7.33333 15.7681 8.03571 17.4638 9.28595 18.714C10.5362 19.9642 12.2319 20.6666 14 20.6666C15.7681 20.6666 17.4638 19.9642 18.714 18.714C19.9643 17.4638 20.6667 15.7681 20.6667 14C20.6667 12.2318 19.9643 10.5362 18.714 9.28591C17.4638 8.03567 15.7681 7.33329 14 7.33329ZM14 9.99996C14.5253 9.99987 15.0454 10.1032 15.5308 10.3042C16.0161 10.5051 16.4571 10.7997 16.8286 11.1711C17.2001 11.5424 17.4948 11.9833 17.6959 12.4686C17.897 12.9539 18.0006 13.474 18.0007 13.9993C18.0008 14.5246 17.8974 15.0447 17.6964 15.5301C17.4955 16.0154 17.2009 16.4564 16.8296 16.8279C16.4582 17.1994 16.0173 17.4941 15.532 17.6952C15.0467 17.8963 14.5266 17.9999 14.0013 18C12.9405 18 11.923 17.5785 11.1729 16.8284C10.4228 16.0782 10.0013 15.0608 10.0013 14C10.0013 12.9391 10.4228 11.9217 11.1729 11.1715C11.923 10.4214 12.9405 9.99996 14.0013 9.99996M21.0013 5.33329C20.5593 5.33329 20.1354 5.50889 19.8228 5.82145C19.5103 6.13401 19.3347 6.55793 19.3347 6.99996C19.3347 7.44199 19.5103 7.86591 19.8228 8.17847C20.1354 8.49103 20.5593 8.66663 21.0013 8.66663C21.4434 8.66663 21.8673 8.49103 22.1798 8.17847C22.4924 7.86591 22.668 7.44199 22.668 6.99996C22.668 6.55793 22.4924 6.13401 22.1798 5.82145C21.8673 5.50889 21.4434 5.33329 21.0013 5.33329Z" fill="black"/>
</svg>
