<svg width="54" height="54" viewBox="0 0 54 54" fill="none" xmlns="http://www.w3.org/2000/svg">
<path d="M29.7413 0.333344C32.7413 0.341344 34.264 0.357344 35.5787 0.394677L36.096 0.413343C36.6933 0.434677 37.2827 0.461343 37.9947 0.493343C40.832 0.626677 42.768 1.07468 44.4667 1.73334C46.2267 2.41068 47.7093 3.32801 49.192 4.80801C50.548 6.14107 51.5972 7.75358 52.2667 9.53334C52.9253 11.232 53.3733 13.168 53.5067 16.008C53.5387 16.7173 53.5653 17.3067 53.5867 17.9067L53.6027 18.424C53.6427 19.736 53.6587 21.2587 53.664 24.2587L53.6667 26.248V29.7413C53.6732 31.6864 53.6528 33.6315 53.6053 35.576L53.5893 36.0933C53.568 36.6933 53.5413 37.2827 53.5093 37.992C53.376 40.832 52.9227 42.7653 52.2667 44.4667C51.5991 46.2474 50.5497 47.8603 49.192 49.192C47.8586 50.5475 46.2462 51.5967 44.4667 52.2667C42.768 52.9253 40.832 53.3733 37.9947 53.5067C37.3619 53.5365 36.729 53.5631 36.096 53.5867L35.5787 53.6027C34.264 53.64 32.7413 53.6587 29.7413 53.664L27.752 53.6667H24.2613C22.3154 53.6734 20.3694 53.6529 18.424 53.6053L17.9067 53.5893C17.2736 53.5654 16.6407 53.5378 16.008 53.5067C13.1707 53.3733 11.2347 52.9253 9.53333 52.2667C7.75378 51.5983 6.1419 50.5489 4.81066 49.192C3.45345 47.8594 2.40326 46.2468 1.73333 44.4667C1.07466 42.768 0.626659 40.832 0.493326 37.992C0.463616 37.3592 0.436949 36.7264 0.413326 36.0933L0.399993 35.576C0.350851 33.6315 0.328627 31.6864 0.333326 29.7413V24.2587C0.325883 22.3136 0.345441 20.3685 0.391993 18.424L0.410659 17.9067C0.431993 17.3067 0.458659 16.7173 0.490659 16.008C0.623993 13.168 1.07199 11.2347 1.73066 9.53334C2.4003 7.75175 3.45258 6.13874 4.81333 4.80801C6.14424 3.45194 7.75504 2.40264 9.53333 1.73334C11.2347 1.07468 13.168 0.626677 16.008 0.493343C16.7173 0.461343 17.3093 0.434677 17.9067 0.413343L18.424 0.397343C20.3685 0.349964 22.3136 0.329518 24.2587 0.33601L29.7413 0.333344ZM27 13.6667C23.4638 13.6667 20.0724 15.0714 17.5719 17.5719C15.0714 20.0724 13.6667 23.4638 13.6667 27C13.6667 30.5362 15.0714 33.9276 17.5719 36.4281C20.0724 38.9286 23.4638 40.3333 27 40.3333C30.5362 40.3333 33.9276 38.9286 36.4281 36.4281C38.9286 33.9276 40.3333 30.5362 40.3333 27C40.3333 23.4638 38.9286 20.0724 36.4281 17.5719C33.9276 15.0714 30.5362 13.6667 27 13.6667ZM27 19C28.0506 18.9998 29.0909 19.2066 30.0616 19.6085C31.0322 20.0103 31.9142 20.5995 32.6572 21.3422C33.4002 22.085 33.9897 22.9668 34.3919 23.9373C34.7941 24.9078 35.0012 25.9481 35.0013 26.9987C35.0015 28.0493 34.7948 29.0896 34.3929 30.0602C33.991 31.0309 33.4019 31.9129 32.6591 32.6559C31.9164 33.3989 31.0346 33.9883 30.064 34.3905C29.0935 34.7927 28.0532 34.9998 27.0027 35C24.8809 35 22.8461 34.1572 21.3458 32.6569C19.8455 31.1566 19.0027 29.1217 19.0027 27C19.0027 24.8783 19.8455 22.8434 21.3458 21.3432C22.8461 19.8429 24.8809 19 27.0027 19M41.0027 9.66668C40.1186 9.66668 39.2708 10.0179 38.6456 10.643C38.0205 11.2681 37.6693 12.116 37.6693 13C37.6693 13.8841 38.0205 14.7319 38.6456 15.357C39.2708 15.9822 40.1186 16.3333 41.0027 16.3333C41.8867 16.3333 42.7346 15.9822 43.3597 15.357C43.9848 14.7319 44.336 13.8841 44.336 13C44.336 12.116 43.9848 11.2681 43.3597 10.643C42.7346 10.0179 41.8867 9.66668 41.0027 9.66668Z" fill="#F38120"/>
</svg>
