<svg width="32" height="26" viewBox="0 0 32 26" fill="none" xmlns="http://www.w3.org/2000/svg">
<path d="M3.07712 25.25C2.27154 25.25 1.59896 24.9802 1.05937 24.4406C0.519792 23.901 0.25 23.2285 0.25 22.4229V3.57712C0.25 2.77154 0.519792 2.09896 1.05937 1.55937C1.59896 1.01979 2.27154 0.75 3.07712 0.75H28.9229C29.7285 0.75 30.401 1.01979 30.9406 1.55937C31.4802 2.09896 31.75 2.77154 31.75 3.57712V22.4229C31.75 23.2285 31.4802 23.901 30.9406 24.4406C30.401 24.9802 29.7285 25.25 28.9229 25.25H3.07712ZM16 13.2021L2 4.04788V22.4229C2 22.737 2.10092 22.9951 2.30275 23.1973C2.50487 23.3991 2.763 23.5 3.07712 23.5H28.9229C29.237 23.5 29.4951 23.3991 29.6973 23.1973C29.8991 22.9951 30 22.737 30 22.4229V4.04788L16 13.2021ZM16 11.25L29.4614 2.5H2.53856L16 11.25ZM2 4.04788V2.5V22.4229C2 22.737 2.10092 22.9951 2.30275 23.1973C2.50487 23.3991 2.763 23.5 3.07712 23.5H2V4.04788Z" fill="#1C1B1F"/>
</svg>
