<svg width="42" height="42" viewBox="0 0 42 42" fill="none" xmlns="http://www.w3.org/2000/svg">
<rect x="6.2632" y="0.368421" width="35.3684" height="35.2781" stroke="#5F462C" stroke-width="0.736842"/>
<rect y="5.98499" width="36.1053" height="36.015" fill="#5F462C"/>
<mask id="mask0_65_843" style="mask-type:alpha" maskUnits="userSpaceOnUse" x="6" y="12" width="24" height="24">
<rect x="6" y="12" width="24" height="24" fill="#D9D9D9"/>
</mask>
<g mask="url(#mask0_65_843)">
<path d="M23.5 26.5V25.5H26C26.1417 25.5 26.2604 25.548 26.3563 25.644C26.4521 25.74 26.5 25.8589 26.5 26.0008C26.5 26.1426 26.4521 26.2612 26.3563 26.3567C26.2604 26.4522 26.1417 26.5 26 26.5H23.5ZM23.5 30.5V29.5H26C26.1417 29.5 26.2604 29.548 26.3563 29.644C26.4521 29.74 26.5 29.8589 26.5 30.0008C26.5 30.1426 26.4521 30.2613 26.3563 30.3568C26.2604 30.4523 26.1417 30.5 26 30.5H23.5ZM20.5 31.5C19.95 31.5 19.4792 31.3042 19.0875 30.9125C18.6958 30.5208 18.5 30.05 18.5 29.5H16.5V26.5H18.5C18.5 25.95 18.6958 25.4792 19.0875 25.0875C19.4792 24.6958 19.95 24.5 20.5 24.5H22.5V31.5H20.5ZM13 28.5C12.0282 28.5 11.2019 28.1596 10.5213 27.4788C9.84042 26.7981 9.5 25.9718 9.5 25C9.5 24.0282 9.84042 23.2019 10.5213 22.5212C11.2019 21.8404 12.0282 21.5 13 21.5H14.5C15.0448 21.5 15.5144 21.3029 15.9088 20.9087C16.3029 20.5144 16.5 20.0448 16.5 19.5C16.5 18.9552 16.3029 18.4856 15.9088 18.0913C15.5144 17.6971 15.0448 17.5 14.5 17.5H11C10.8583 17.5 10.7396 17.452 10.6438 17.356C10.5479 17.26 10.5 17.1411 10.5 16.9992C10.5 16.8574 10.5479 16.7387 10.6438 16.6432C10.7396 16.5477 10.8583 16.5 11 16.5H14.5C15.3385 16.5 16.0481 16.7904 16.6287 17.3712C17.2096 17.9519 17.5 18.6615 17.5 19.5C17.5 20.3385 17.2096 21.0481 16.6287 21.6288C16.0481 22.2096 15.3385 22.5 14.5 22.5H13C12.3125 22.5 11.724 22.7452 11.2345 23.2355C10.7448 23.7258 10.5 24.3152 10.5 25.0037C10.5 25.6923 10.7448 26.2804 11.2345 26.7683C11.724 27.2561 12.3125 27.5 13 27.5H15.5V28.5H13Z" fill="white"/>
</g>
</svg>
