<svg width="42" height="42" viewBox="0 0 42 42" fill="none" xmlns="http://www.w3.org/2000/svg">
<rect x="6.2632" y="0.368421" width="35.3684" height="35.2781" stroke="#5F462C" stroke-width="0.736842"/>
<rect y="5.98499" width="36.1053" height="36.015" fill="#5F462C"/>
<mask id="mask0_65_860" style="mask-type:alpha" maskUnits="userSpaceOnUse" x="6" y="12" width="24" height="24">
<rect x="6" y="12" width="24" height="24" fill="#D9D9D9"/>
</mask>
<g mask="url(#mask0_65_860)">
<path d="M15 32V30H10.6155C10.1552 30 9.77083 29.8458 9.4625 29.5375C9.15417 29.2292 9 28.8448 9 28.3845V17.6155C9 17.1552 9.15417 16.7708 9.4625 16.4625C9.77083 16.1542 10.1552 16 10.6155 16H25.3845C25.8448 16 26.2292 16.1542 26.5375 16.4625C26.8458 16.7708 27 17.1552 27 17.6155V28.3845C27 28.8448 26.8458 29.2292 26.5375 29.5375C26.2292 29.8458 25.8448 30 25.3845 30H21V32H15ZM10.6155 29H25.3845C25.5385 29 25.6796 28.9359 25.8078 28.8077C25.9359 28.6796 26 28.5385 26 28.3845V17.6155C26 17.4615 25.9359 17.3204 25.8078 17.1923C25.6796 17.0641 25.5385 17 25.3845 17H10.6155C10.4615 17 10.3204 17.0641 10.1923 17.1923C10.0641 17.3204 10 17.4615 10 17.6155V28.3845C10 28.5385 10.0641 28.6796 10.1923 28.8077C10.3204 28.9359 10.4615 29 10.6155 29Z" fill="white"/>
</g>
</svg>
