<svg width="20" height="21" viewBox="0 0 20 21" fill="none" xmlns="http://www.w3.org/2000/svg">
<path d="M10.001 0.5C15.524 0.5 20.001 4.977 20.001 10.5C20.001 16.023 15.524 20.5 10.001 20.5C8.23377 20.5029 6.49765 20.0352 4.97099 19.145L0.00499063 20.5L1.35699 15.532C0.466084 14.0049 -0.00196181 12.268 0.000990443 10.5C0.000990443 4.977 4.47799 0.5 10.001 0.5ZM6.59299 5.8L6.39299 5.808C6.26351 5.81589 6.13697 5.8499 6.02099 5.908C5.91251 5.96943 5.81349 6.04622 5.72699 6.136C5.60699 6.249 5.53899 6.347 5.46599 6.442C5.09611 6.9229 4.89696 7.51331 4.89999 8.12C4.90199 8.61 5.02999 9.087 5.22999 9.533C5.63899 10.435 6.31199 11.39 7.19999 12.275C7.41399 12.488 7.62399 12.702 7.84999 12.901C8.95338 13.8725 10.2682 14.573 11.69 14.947L12.258 15.034C12.443 15.044 12.628 15.03 12.814 15.021C13.1052 15.006 13.3896 14.9271 13.647 14.79C13.7779 14.7225 13.9057 14.6491 14.03 14.57C14.03 14.57 14.073 14.542 14.155 14.48C14.29 14.38 14.373 14.309 14.485 14.192C14.568 14.106 14.64 14.005 14.695 13.89C14.773 13.727 14.851 13.416 14.883 13.157C14.907 12.959 14.9 12.851 14.897 12.784C14.893 12.677 14.804 12.566 14.707 12.519L14.125 12.258C14.125 12.258 13.255 11.879 12.723 11.637C12.6673 11.6127 12.6077 11.5988 12.547 11.596C12.4786 11.589 12.4094 11.5967 12.3442 11.6186C12.279 11.6405 12.2193 11.6761 12.169 11.723C12.164 11.721 12.097 11.778 11.374 12.654C11.3325 12.7098 11.2753 12.7519 11.2098 12.7751C11.1443 12.7982 11.0733 12.8013 11.006 12.784C10.9408 12.7665 10.877 12.7445 10.815 12.718C10.691 12.666 10.648 12.646 10.563 12.61C9.98906 12.3595 9.45768 12.0211 8.98799 11.607C8.86199 11.497 8.74499 11.377 8.62499 11.261C8.23158 10.8842 7.88871 10.458 7.60499 9.993L7.54599 9.898C7.50361 9.83416 7.46935 9.7653 7.44399 9.693C7.40599 9.546 7.50499 9.428 7.50499 9.428C7.50499 9.428 7.74799 9.162 7.86099 9.018C7.97099 8.878 8.06399 8.742 8.12399 8.645C8.24199 8.455 8.27899 8.26 8.21699 8.109C7.93699 7.425 7.64699 6.744 7.34899 6.068C7.28999 5.934 7.11499 5.838 6.95599 5.819C6.90199 5.813 6.84799 5.807 6.79399 5.803C6.6597 5.79633 6.52513 5.79766 6.39099 5.807L6.59299 5.8Z" fill="#171616"/>
</svg>
