<svg width="42" height="42" viewBox="0 0 42 42" fill="none" xmlns="http://www.w3.org/2000/svg">
<rect x="6.2632" y="0.368421" width="35.3684" height="35.2781" stroke="#5F462C" stroke-width="0.736842"/>
<rect y="5.98499" width="36.1053" height="36.015" fill="#5F462C"/>
<mask id="mask0_65_851" style="mask-type:alpha" maskUnits="userSpaceOnUse" x="6" y="12" width="24" height="24">
<rect x="6" y="12" width="24" height="24" fill="#D9D9D9"/>
</mask>
<g mask="url(#mask0_65_851)">
<path d="M18 32.423C17.5692 32.423 17.2051 32.2743 16.9078 31.977C16.6103 31.6795 16.4615 31.3153 16.4615 30.8845C16.4615 30.4538 16.6103 30.0898 16.9078 29.7923C17.2051 29.4949 17.5692 29.3463 18 29.3463C18.4309 29.3463 18.7949 29.4949 19.0923 29.7923C19.3898 30.0898 19.5385 30.4538 19.5385 30.8845C19.5385 31.3153 19.3898 31.6795 19.0923 31.977C18.7949 32.2743 18.4309 32.423 18 32.423ZM12.35 27.35L11.327 26.3155C12.1949 25.4475 13.1962 24.7677 14.331 24.276C15.4659 23.7843 16.6899 23.5385 18.0033 23.5385C19.3164 23.5385 20.5394 23.7853 21.672 24.2788C22.8049 24.7724 23.8052 25.4552 24.673 26.327L23.65 27.35C22.9167 26.6167 22.0667 26.0417 21.1 25.625C20.1334 25.2083 19.1 25 18 25C16.9 25 15.8667 25.2083 14.9 25.625C13.9334 26.0417 13.0834 26.6167 12.35 27.35ZM8.10003 23.1L7.07703 22.077C8.46936 20.677 10.0944 19.5706 11.952 18.7578C13.8097 17.9449 15.8257 17.5385 18 17.5385C20.1744 17.5385 22.1904 17.9449 24.048 18.7578C25.9057 19.5706 27.5307 20.677 28.923 22.077L27.9 23.1C26.6167 21.8167 25.1292 20.8125 23.4375 20.0875C21.7459 19.3625 19.9334 19 18 19C16.0667 19 14.2542 19.3625 12.5625 20.0875C10.8709 20.8125 9.38336 21.8167 8.10003 23.1Z" fill="white"/>
</g>
</svg>
